<?xml version="1.0" encoding="utf-8"?>
<!-- Generator: Adobe Illustrator 26.3.1, SVG Export Plug-In . SVG Version: 6.00 Build 0)  -->
<svg version="1.1" id="Layer_1" xmlns="http://www.w3.org/2000/svg" xmlns:xlink="http://www.w3.org/1999/xlink" x="0px" y="0px"
	 viewBox="0 0 48 48" style="enable-background:new 0 0 48 48;" xml:space="preserve">
<style type="text/css">
	.st0{fill:#2386C7;}
</style>
<g>
	<path class="st0" d="M22.3,39.8c5.9-1,10.7-1.9,10.8-1.9l0.1,0l-5.6-6.6c-3.1-3.6-5.6-6.6-5.6-6.6c0,0,5.7-15.8,5.8-15.9
		c0,0,3.9,6.7,9.5,16.3c5.2,9,9.5,16.4,9.5,16.5l0.1,0.1l-17.7,0l-17.7,0C11.6,41.7,22.3,39.8,22.3,39.8z"/>
	<path class="st0" d="M1.1,37.8c0,0,2.6-4.6,5.8-10.1l5.8-10.1l6.8-5.7c3.7-3.1,6.8-5.7,6.8-5.7c0,0,0,0.1-0.1,0.3
		c-0.1,0.2-3.4,7.3-7.4,15.8l-7.2,15.5l-5.3,0C3.5,37.8,1.1,37.8,1.1,37.8z"/>
</g>
</svg>
