<?xml version="1.0" encoding="utf-8"?>
<!-- Generator: Adobe Illustrator 26.5.0, SVG Export Plug-In . SVG Version: 6.00 Build 0)  -->
<svg version="1.1" id="Layer_1" xmlns="http://www.w3.org/2000/svg" xmlns:xlink="http://www.w3.org/1999/xlink" x="0px" y="0px"
	 viewBox="0 0 2154.3 340.2" style="enable-background:new 0 0 2154.3 340.2;" xml:space="preserve">
<style type="text/css">
	.st0{fill:#6F6F6F;}
	.st1{fill:#0066B1;}
</style>
<g id="BMW">
	<g>
		<path class="st0" d="M1332.3,0c-93.9,0-170.1,76.1-170.1,170.1s76.1,170.1,170.1,170.1s170.1-76.1,170.1-170.1S1426.2,0,1332.3,0
			L1332.3,0z M1491.3,170.1c0,87.8-71.2,159-159,159s-159-71.2-159-159s71.2-159,159-159C1420.1,11.1,1491.3,82.3,1491.3,170.1z"/>
		<path class="st0" d="M1332.3,69.2v5.5l0,0c52.6,0,95.3,42.8,95.3,95.3h5.5C1433.1,114.4,1388,69.2,1332.3,69.2L1332.3,69.2
			 M1332.3,265.4c-52.6,0-95.3-42.8-95.3-95.3h-5.5c0,55.7,45.2,100.9,100.9,100.9"/>
		<g>
			<path id="W_00000038401958559747952230000003335180717694887565_" class="st0" d="M1414.7,97.9c2.3,2.5,5.6,6.5,7.5,8.9
				l34.4-21.9c-1.7-2.3-4.5-5.7-6.5-8.1l-21.8,14.4l-1.5,1.3l1.1-1.6l9.6-19.2l-6.8-6.8l-19.2,9.6l-1.6,1.1l1.3-1.5l14.4-21.8
				c-2.5-2.2-5-4.1-8.1-6.5l-21.9,34.4c2.8,2.1,6.4,5.3,8.7,7.4L1425,77l1.3-1l-1,1.3L1414.7,97.9z"/>
			<path id="M_00000014625792662285328050000001483229619419633832_" class="st0" d="M1336.6,54.3l9.4-21.1l0.6-1.9l-0.2,2l1,28.2
				c3.3,0.3,6.7,0.8,10.1,1.3l-1.5-41.7c-4.7-0.5-9.4-0.9-14.1-1.1l-9.3,23l-0.3,1.7L1332,43l-9.3-23c-4.7,0.2-9.4,0.6-14.1,1.1
				l-1.5,41.7c3.4-0.6,6.8-1,10.1-1.3l1-28.2l-0.2-2l0.6,1.9l9.4,21.1C1328,54.3,1336.6,54.3,1336.6,54.3z"/>
			<path id="B_x5F_22d_00000049189862667614206340000000839590176819133857_" class="st0" d="M1260.5,87.6
				c5.4-5.7,8.5-12.4,3.1-18.7c-3-3.4-7.9-4.2-12.1-2.5l-0.4,0.2l0.1-0.4c0.6-1.6,1-6.8-3.4-10.4c-2.2-1.7-4.9-2.4-7.6-2.1
				c-5.1,0.5-9,4-19.7,15.9c-3.2,3.6-7.9,9.3-10.8,13l29.4,27.9C1248.8,99.7,1252.8,95.6,1260.5,87.6z M1222.1,80.7
				c5.9-7.2,12.2-13.8,15.1-16.4c0.9-0.8,1.9-1.6,3.1-2c1.9-0.5,3.9,0.8,4.4,2.8c0.5,2-0.8,3.9-2.2,5.4
				c-3.1,3.5-14.6,15.5-14.6,15.5L1222.1,80.7z M1233.6,91.7c0,0,11.2-11.8,14.8-15.6c1.4-1.5,2.4-2.4,3.4-2.9
				c1.3-0.6,2.7-0.8,4,0.1c1.2,0.8,1.8,2.3,1.5,3.7c-0.4,1.7-1.7,3.3-2.9,4.5c-1.5,1.7-14.8,15.8-14.8,15.9L1233.6,91.7z"/>
		</g>
		<path class="st1" d="M1332.3,69.2v100.9h-100.9C1231.4,114.3,1276.5,69.2,1332.3,69.2z"/>
		<path class="st1" d="M1433.1,170.1c0,55.7-45.1,100.9-100.9,100.9V170.1H1433.1z"/>
	</g>
</g>
<g id="MINI">
	<g>
		<path class="st0" d="M1814.6,196.8h-10.4v-53.5h15.6l13.6,42.7l13.5-42.7h15.6v53.5h-10.8v-39.6l-12.5,39.6h-11.7l-12.9-39.9
			L1814.6,196.8L1814.6,196.8z M1885.6,196.8h-11.1v-53.5h11.1V196.8z M1908.4,196.8h-10.6v-53.5h13.1l21.3,38.8v-38.8h10.6v53.5
			h-13.1l-21.3-38.6V196.8z M1965.9,196.8h-11.1v-53.5h11.1V196.8z M2044.5,216.5h-50.7c2.7-6.3,4.8-12.9,6.4-19.7h64l16.9-16.9
			h-78.3c0.3-3.3,0.4-6.5,0.4-9.9c0-3.3-0.2-6.6-0.4-9.9h98l16.9-16.9h-117.5c-1.6-6.8-3.7-13.4-6.4-19.7h143.6l16.9-16.9h-169.5
			c-21-33-57.9-54.9-99.8-54.9s-78.8,21.9-99.8,54.9h-169.5l16.9,16.9h143.7c-2.7,6.3-4.9,12.9-6.4,19.7h-117.5l16.9,16.9h98
			c-0.3,3.3-0.4,6.5-0.4,9.9c0,3.3,0.2,6.6,0.4,9.9H1689l16.9,16.9h64c1.6,6.8,3.7,13.4,6.4,19.7h-50.8l16.9,16.9h42.8
			c21,33,57.9,54.9,99.8,54.9s78.8-21.9,99.8-54.9h42.8L2044.5,216.5z M1885,271.5c-55.9,0-101.4-45.5-101.4-101.4
			S1829.1,68.7,1885,68.7s101.4,45.5,101.4,101.4S1940.9,271.5,1885,271.5"/>
	</g>
</g>
<g id="BMW_Group_Next">
	<g>
		<path class="st0" d="M5,155.7h64c20.4,0,32.8-3.5,41.9-11.1c9.5-7.6,14-19.6,14-34.3c0-9.7-2.7-18-6.4-23.3
			c-3.7-5-7.6-8.5-12.2-11.8c2.3-3.7,5.4-8.7,8.3-13.6c4.3-7.8,7-14.7,7-24.4c0-12.6-5.6-23.5-14.9-29.9C98.5,1.7,88.2,0,72.3,0H5
			V155.7L5,155.7z M29.9,132.1V88.4h40.9c9.5,0,15.3,0.8,20,3.7c6.2,4.3,8.7,10.1,8.7,18.2c0,7.2-1.9,12.6-6.4,16.3
			c-4.5,3.9-11.1,5.6-23.7,5.6H29.9V132.1z M29.9,64.8V23.5H70c9.1,0,15.5,0.4,19.6,2.9c4.7,2.7,6.6,7,6.6,13.2c0,6-2.1,10.5-5,15.7
			c-1.9,3.1-3.9,6.6-5.8,9.5H29.9L29.9,64.8z"/>
		<polygon class="st0" points="167.2,155.7 167.2,37.4 203.8,124.7 226.7,124.7 263.2,37.4 263.2,155.7 287.8,155.7 287.8,0 
			254.8,0 215.5,93.9 176.1,0 142.7,0 142.7,155.7 		"/>
		<polygon class="st0" points="362.7,155.7 388.5,58.4 414.4,155.7 447.2,155.7 477.7,0 452.5,0 428.6,123.2 402,23.5 375.3,23.5 
			348.7,123.2 324.8,0 299.2,0 329.7,155.7 		"/>
		<path class="st0" d="M115.8,335v-81.8H91v61.3c-5.6,0.6-16.3,1.9-26.4,1.9c-17.5,0-27.7-4.3-33.2-15.5c-4.5-9.1-6-22.5-6-40.7
			s1.7-32.2,6.2-41.5c5.8-12.2,14.7-16.9,32.6-16.9c5.6,0,11.8,0.8,18.2,2.1c9.7,1.9,19.8,4.1,28.3,6.2v-24.4
			c-6.4-1.7-15.3-3.7-24.8-5.6c-7.6-1.4-16.1-2.7-24.2-2.7c-28.7,0-41.9,10.7-50.6,25.4C2.9,216.7,0,235.3,0,260.7
			C0,285,3.1,302.8,10.1,315c8.5,14.7,20.9,25.2,50.8,25.2C78.9,340.2,101,337.5,115.8,335L115.8,335z"/>
		<path class="st0" d="M159.1,336.6v-56.8h36.5l33.4,56.8h29.1l-35.7-60.5c3.9-4.1,10.3-11.4,15.3-17.3c8.1-9.9,13-19.6,13-33.6
			c0-13.6-5-26.2-13.8-33.7C227,183,215.4,181,196.4,181h-62.3v155.7h25L159.1,336.6L159.1,336.6z M159.1,255.9v-51h34.7
			c13.2,0,19.8,1,24.4,4.1c5.4,3.7,7.2,9.1,7.2,16.3c0,8.3-3.5,14.2-8.1,20c-2.7,3.3-6.2,7.4-9.1,10.5L159.1,255.9L159.1,255.9z"/>
		<path class="st0" d="M325.9,177.5c-30.6,0-44.8,9.9-54.5,26.4c-8.1,13.6-10.5,34.5-10.5,55.3c0,24.2,3.7,44.4,11.8,57.4
			c9.5,15.3,22.9,23.5,53.3,23.5c26.4,0,40.5-7.2,51.4-23.1c9.3-13.2,13.4-34.3,13.4-57.8c0-22.3-3.3-44.4-13.4-58.8
			C366.6,184.9,352.5,177.5,325.9,177.5L325.9,177.5z M325.9,201.4c14,0,25,3.5,31.6,15.1c6,10.1,7.8,26,7.8,42.7
			c0,17.3-1.9,34.9-9.9,45.2c-7.2,9.3-17.1,11.8-29.5,11.8c-14,0-25.8-2.3-32.6-14c-5.4-9.7-7-26.4-7-42.9c0-16.7,1.4-33,6.8-42.7
			C299.9,204.1,311.9,201.4,325.9,201.4L325.9,201.4z"/>
		<path class="st0" d="M406.7,181v95.8c0,22.1,2.5,38,13,49.1c10.3,11.4,23.9,14.2,45,14.2c19.8,0,33.7-3.3,44.2-13.8
			c11.1-11.1,13.6-26.2,13.6-49.5V181h-25v96.4c0,16.3-1,26-7.8,32.4c-5.8,5.2-14.7,6.4-25,6.4c-10.5,0-19.6-1.2-25.2-6.6
			c-6.8-6.6-7.8-16.3-7.8-32.2V181H406.7L406.7,181z"/>
		<path class="st0" d="M565.7,336.6v-55.7c16.3,0,30.1,0,38.8-0.6c14.5-0.8,26.2-3.9,34.9-12.8c9.1-9.5,12.6-22.9,12.6-37.8
			c0-14.2-3.9-27.5-12.2-36.1c-8.7-8.9-19.8-12.6-37-12.6h-62.1v155.7h25V336.6z M565.7,257v-52h34.5c9.9,0,15.9,1,20.2,5.4
			c4.3,4.3,6.2,10.9,6.2,19.4c0,8.3-1,14.9-5.2,19.4c-4.1,5-10.1,6.6-19.4,7.2C592.5,257,579.5,257,565.7,257L565.7,257z"/>
	</g>
</g>
<text transform="matrix(1 0 0 1 -6.103516e-05 498.1974)" class="st0" style="font-family:'BMWGroupTNCondensedPro-Reg'; font-size:164px;">IT Hub</text>
</svg>
