<?xml version="1.0" encoding="utf-8"?>
<!-- Generator: Adobe Illustrator 26.3.1, SVG Export Plug-In . SVG Version: 6.00 Build 0)  -->
<svg version="1.1" id="Layer_1" xmlns="http://www.w3.org/2000/svg" xmlns:xlink="http://www.w3.org/1999/xlink" x="0px" y="0px"
	 viewBox="0 0 48 48" style="enable-background:new 0 0 48 48;" xml:space="preserve">
<style type="text/css">
	.st0{fill:#C0C5CC;}
</style>
<g>
	<path class="st0" d="M39.9,28.5C39.2,27.5,38,27,36.4,27c-0.3,0-0.5,0-0.7,0c0-0.3,0-0.6,0-1c0,0,0,0,0,0c0,0,0,0,0-0.1h-1H10h-1
		c0,0,0,0,0,0.1c0,0,0,0,0,0c0,6.2,1.7,10.4,6.3,15.8c0.4,0.4-0.3,0.8-0.3,1.2h14.6c0-0.4-0.6-0.8-0.3-1.2c0.3-0.4,0.6-0.7,0.9-1.1
		c1.5-0.7,3.4-1.6,4.7-2.2c3.1-1.4,5.2-3.7,5.7-6.4C40.9,30.7,40.7,29.4,39.9,28.5z M38.7,31.8c-0.5,2.7-2.7,4.2-4.5,5
		c-0.5,0.2-1,0.5-1.6,0.7c1.7-2.8,2.6-5.4,3-8.6c0.2,0,0.5,0,0.8,0c1,0,1.7,0.3,2.1,0.8C38.9,30.3,38.9,31.2,38.7,31.8z"/>
	<path class="st0" d="M22.4,43.8H7.2c0.4,0.5,0.6,0.6,2,1c1.6,0.5,3,0.6,13.1,0.6c10.1-0.1,11.6-0.2,13.1-0.6c1.4-0.4,1.6-0.5,2-1
		H22.4z"/>
	<g>
		<path class="st0" d="M27.2,2c-0.7,1.3-1.4,2.7-1.7,4.6c-0.4,2.3-0.1,4.1,0.3,6.3c0.8,4.7-0.7,8.7-3.3,9.9c0.7-1.5,1.5-3.1,1.6-5.2
			c0.2-2.3-0.7-4.1-0.8-6.2C23.1,6.9,24.8,2.7,27.2,2z"/>
		<path class="st0" d="M31.4,7.1c-0.5,0.9-0.9,1.8-1.1,3c-0.3,1.5-0.1,2.7,0.2,4.1c0.5,3.1-0.5,5.7-2.1,6.5c0.5-1,1-2.1,1-3.4
			c0.1-1.5-0.4-2.6-0.5-4.1C28.7,10.3,29.8,7.6,31.4,7.1z"/>
		<path class="st0" d="M21.5,7.1c-0.5,0.9-0.9,1.8-1.1,3c-0.3,1.5-0.1,2.7,0.2,4.1c0.5,3.1-0.5,5.7-2.1,6.5c0.5-1,1-2.1,1-3.4
			c0.1-1.5-0.4-2.6-0.5-4.1C18.8,10.3,19.9,7.6,21.5,7.1z"/>
	</g>
</g>
</svg>
