<?xml version="1.0" encoding="utf-8"?>
<!-- Generator: Adobe Illustrator 26.3.1, SVG Export Plug-In . SVG Version: 6.00 Build 0)  -->
<svg version="1.1" id="Layer_1" xmlns="http://www.w3.org/2000/svg" xmlns:xlink="http://www.w3.org/1999/xlink" x="0px" y="0px"
	 viewBox="0 0 48 48" style="enable-background:new 0 0 48 48;" xml:space="preserve">
<style type="text/css">
	.st0{fill:#C0C5CC;}
</style>
<path class="st0" d="M6.9,12.9c0-2.9,2.4-5.3,5.3-5.3c1.5,0,2.9,0.7,3.9,1.7c-0.1,0.6-0.2,1.2-0.2,1.9c0,1.5,0.4,2.9,1.1,4.1
	c-0.9,1.8-2.7,3-4.8,3C9.3,18.2,6.9,15.8,6.9,12.9z M32,11.1c0,1.5-0.4,2.9-1.1,4.1c0.9,1.8,2.7,3,4.8,3c2.9,0,5.3-2.4,5.3-5.3
	c0-2.9-2.4-5.3-5.3-5.3c-1.5,0-2.9,0.7-3.9,1.7C31.9,9.9,32,10.5,32,11.1z M38.2,18.9c-0.8,0.4-1.7,0.6-2.6,0.6
	c-0.5,0-1.1-0.1-1.6-0.2c3.2,2,3.8,5.3,3.8,8.4v4c1.3-0.1,2.6-0.3,3.7-0.6l0.7-4.3v4.1c1.3-0.4,2.4-0.9,3.2-1.5V26
	C45.5,22.6,44.7,19.5,38.2,18.9z M14.8,18.9C14.8,18.9,14.8,18.9,14.8,18.9c-0.8,0.4-1.7,0.6-2.6,0.6c-0.9,0-1.8-0.2-2.6-0.6
	c-6.5,0.6-7.3,3.8-7.3,7.2v3.4c0.9,0.6,2,1.1,3.2,1.5v-4.1l0.7,4.3c1.1,0.3,2.4,0.5,3.7,0.6v-4c0-1.5,0.2-3.2,0.9-4.8
	C11.6,21.4,12.8,19.9,14.8,18.9z M36.5,27.7v4.3c-0.7,0.5-1.5,0.9-2.4,1.3c-0.5,0.2-1.1,0.4-1.6,0.6v-5.1L32.1,31
	c-1.1-3.5-4.3-6-8.1-6c-3.6,0-6.7,2.2-7.9,5.4l-0.3-1.7v2.6c-0.2,0.7-0.3,1.5-0.3,2.2c0,0.1,0,0.1,0,0.2c-0.6-0.2-1.1-0.4-1.6-0.6
	c-0.9-0.4-1.8-0.9-2.4-1.4v-4c0-4.3,1.5-8.2,9.5-9c1,0.5,2.1,0.8,3.2,0.8c1.2,0,2.3-0.3,3.3-0.8C35.5,19.5,36.5,23.4,36.5,27.7z
	 M30.6,11.1c0,3.7-3,6.7-6.7,6.7c-3.7,0-6.7-3-6.7-6.7s3-6.7,6.7-6.7C27.6,4.5,30.6,7.5,30.6,11.1z"/>
<path class="st0" d="M34.1,33.2c-0.2-5.5-4.6-9.9-10.1-9.9c-5.5,0-9.9,4.3-10.1,9.7c0,0.1,0,0.3,0,0.4c0,5.6,4.5,10.1,10.1,10.1
	s10.1-4.5,10.1-10.1C34.1,33.4,34.1,33.3,34.1,33.2z M23.9,42c-4.6,0-8.4-3.7-8.5-8.3c0-0.1,0-0.1,0-0.2c0-0.8,0.1-1.5,0.3-2.2
	c0.1-0.3,0.2-0.6,0.3-0.9c1.2-3.2,4.3-5.4,7.9-5.4c3.8,0,7.1,2.5,8.1,6c0.2,0.8,0.4,1.6,0.4,2.5C32.5,38.2,28.6,42,23.9,42z"/>
<path class="st0" d="M23.9,38.9c0,0-5.3-3.3-5.3-6.6c0-1.5,1.2-2.7,2.7-2.7c1.2,0,2.3,0.8,2.6,2c0.3-1.1,1.4-2,2.6-2
	c1.5,0,2.7,1.2,2.7,2.7C29.2,35.6,23.9,38.9,23.9,38.9z"/>
</svg>
