<?xml version="1.0" encoding="utf-8"?>
<!-- Generator: Adobe Illustrator 26.4.1, SVG Export Plug-In . SVG Version: 6.00 Build 0)  -->
<svg version="1.1" id="Layer_1" xmlns="http://www.w3.org/2000/svg" xmlns:xlink="http://www.w3.org/1999/xlink" x="0px" y="0px"
	 viewBox="0 0 48 48" style="enable-background:new 0 0 48 48;" xml:space="preserve">
<style type="text/css">
	.st0{fill:none;stroke:#7A7A7A;stroke-width:1.5192;stroke-linecap:round;stroke-linejoin:round;stroke-miterlimit:10;}
</style>
<g>
	<path class="st0" d="M45.9,11.6v-1c0-2.1-1.7-3.8-3.8-3.8H21.1c-2.1,0-3.8,1.7-3.8,3.8v15.2c0,2.1,1.7,3.8,3.8,3.8h10.1
		c0.3,0,0.5,0.1,0.7,0.3l3.1,3.5l2.7-3.4c0.2-0.2,0.5-0.4,0.7-0.4h3.6c2.1,0,3.8-1.7,3.8-3.8V15.4"/>
	<path class="st0" d="M26.9,33.5L26.9,33.5c0,2.1-1.7,3.8-3.8,3.8h-5.6c-0.3,0-0.5,0.1-0.7,0.3l-3.1,3.5L11,37.7
		c-0.2-0.2-0.5-0.4-0.7-0.4H5.9c-2.1,0-3.8-1.7-3.8-3.8V18.3c0-2.1,1.7-3.8,3.8-3.8h7.6"/>
	<path class="st0" d="M37.1,14.3c-0.6-0.5-1.5-1-3-0.7c-1.2,0.2-2,0.8-2.5,1.2c-0.5-0.4-1.3-1-2.5-1.2c-0.3,0-0.5-0.1-0.7-0.1
		c-2.2,0-3.4,1.9-3.4,3.1c0,1.3,0.3,2.1,1.3,3.4c1.2,1.6,3.3,3.8,5.3,4.8c0,0,0.1,0,0.1,0c0,0,0.1,0,0.1,0c2-1,4.1-3.2,5.3-4.8
		c0.5-0.7,0.8-1.2,1-1.8c0.2-0.5,0.2-1,0.2-1.7C38.3,15.9,37.8,14.9,37.1,14.3z"/>
	<path class="st0" d="M15.5,31.5l-2.4-1.2c-0.3-0.2-0.7-0.2-1,0l-2.4,1.2c-0.8,0.4-1.8-0.3-1.6-1.1l0.5-2.6c0.1-0.4-0.1-0.7-0.3-1
		L6.3,25c-0.7-0.6-0.3-1.7,0.6-1.9l2.7-0.4c0.4-0.1,0.7-0.3,0.8-0.6l1.2-2.3c0.4-0.8,1.6-0.8,2,0l0.9,1.8"/>
</g>
</svg>
