<?xml version="1.0" encoding="utf-8"?>
<!-- Generator: Adobe Illustrator 26.3.1, SVG Export Plug-In . SVG Version: 6.00 Build 0)  -->
<svg version="1.1" id="Layer_1" xmlns="http://www.w3.org/2000/svg" xmlns:xlink="http://www.w3.org/1999/xlink" x="0px" y="0px"
	 viewBox="0 0 48 48" style="enable-background:new 0 0 48 48;" xml:space="preserve">
<style type="text/css">
	.st0{fill:#C0C5CC;}
</style>
<path class="st0" d="M23.9,2.3c6,0,11.4,2.4,15.3,6.3c3.9,3.9,6.3,9.3,6.3,15.3c0,6-2.4,11.4-6.3,15.3c-3.9,3.9-9.3,6.3-15.3,6.3
	c-6,0-11.4-2.4-15.3-6.3C4.7,35.4,2.2,30,2.2,24c0-6,2.4-11.4,6.3-15.3C12.5,4.8,17.9,2.3,23.9,2.3L23.9,2.3z M38.6,9.3
	c-3.8-3.8-9-6.1-14.7-6.1c-5.7,0-11,2.3-14.7,6.1s-6.1,9-6.1,14.7c0,5.7,2.3,11,6.1,14.7c3.8,3.8,9,6.1,14.7,6.1
	c5.7,0,11-2.3,14.7-6.1c3.8-3.8,6.1-9,6.1-14.7C44.7,18.3,42.4,13,38.6,9.3L38.6,9.3z"/>
<g>
	<path class="st0" d="M23.9,33c-4.1,0-7.9-2.2-10-5.8c-0.3-0.5-0.1-1.2,0.4-1.5c0.5-0.3,1.2-0.1,1.5,0.4c1.7,2.9,4.7,4.6,8.1,4.6
		c3.3,0,6.4-1.8,8.1-4.6c0.3-0.5,1-0.7,1.5-0.4c0.5,0.3,0.7,1,0.4,1.5C31.8,30.8,28,33,23.9,33z"/>
</g>
<g>
	<g>
		<circle class="st0" cx="18.2" cy="17.3" r="2.3"/>
	</g>
	<g>
		<circle class="st0" cx="29.5" cy="17.3" r="2.3"/>
	</g>
</g>
</svg>
