<?xml version="1.0" encoding="utf-8"?>
<!-- Generator: Adobe Illustrator 26.3.1, SVG Export Plug-In . SVG Version: 6.00 Build 0)  -->
<svg version="1.1" id="Layer_1" xmlns="http://www.w3.org/2000/svg" xmlns:xlink="http://www.w3.org/1999/xlink" x="0px" y="0px"
	 viewBox="0 0 48 48" style="enable-background:new 0 0 48 48;" xml:space="preserve">
<style type="text/css">
	.st0{fill:#5382A1;}
	.st1{fill:#E76F00;}
</style>
<g>
	<path class="st0" d="M18.7,35c0,0-1.5,0.9,1.1,1.2c3.2,0.4,4.8,0.3,8.4-0.4c0,0,0.9,0.6,2.2,1.1C22.5,40.4,12.5,36.8,18.7,35"/>
	<path class="st0" d="M17.7,30.6c0,0-1.7,1.3,0.9,1.6c3.4,0.4,6.1,0.4,10.8-0.5c0,0,0.6,0.7,1.7,1C21.5,35.5,10.9,32.9,17.7,30.6"/>
	<path class="st1" d="M25.9,23.1c1.9,2.2-0.5,4.3-0.5,4.3s4.9-2.6,2.7-5.7c-2.1-3-3.7-4.5,5.1-9.6C33.1,12.1,19.3,15.5,25.9,23.1"/>
	<path class="st0" d="M36.3,38.3c0,0,1.1,0.9-1.3,1.7c-4.6,1.4-19,1.8-23,0.1c-1.4-0.6,1.3-1.5,2.1-1.7c0.9-0.2,1.4-0.2,1.4-0.2
		c-1.6-1.1-10.4,2.2-4.4,3.2C27.2,44,40.5,40.2,36.3,38.3"/>
	<path class="st0" d="M19.4,26c0,0-7.3,1.7-2.6,2.4c2,0.3,6,0.2,9.7-0.1c3-0.3,6.1-0.8,6.1-0.8s-1.1,0.5-1.8,1c-7.5,2-21.8,1-17.7-1
		C16.6,25.8,19.4,26,19.4,26"/>
	<path class="st0" d="M32.6,33.4c7.6-3.9,4.1-7.7,1.6-7.2c-0.6,0.1-0.9,0.2-0.9,0.2s0.2-0.3,0.6-0.5c4.8-1.7,8.6,5-1.6,7.7
		C32.5,33.6,32.6,33.5,32.6,33.4"/>
	<path class="st1" d="M28,3.8c0,0,4.2,4.2-4,10.6c-6.6,5.2-1.5,8.1,0,11.5c-3.8-3.5-6.6-6.5-4.7-9.3C22.1,12.5,29.7,10.5,28,3.8"/>
	<path class="st0" d="M20.2,44.1c7.3,0.5,18.4-0.3,18.7-3.7c0,0-0.5,1.3-6,2.3c-6.2,1.2-13.9,1-18.4,0.3
		C14.5,43,15.4,43.8,20.2,44.1"/>
</g>
</svg>
