<?xml version="1.0" encoding="utf-8"?>
<!-- Generator: Adobe Illustrator 26.3.1, SVG Export Plug-In . SVG Version: 6.00 Build 0)  -->
<svg version="1.1" id="Layer_1" xmlns="http://www.w3.org/2000/svg" xmlns:xlink="http://www.w3.org/1999/xlink" x="0px" y="0px"
	 viewBox="0 0 48 48" style="enable-background:new 0 0 48 48;" xml:space="preserve">
<style type="text/css">
	.st0{fill:none;stroke:#7A7A7A;stroke-width:1.5966;stroke-linecap:round;stroke-linejoin:round;stroke-miterlimit:10;}
</style>
<g>
	<path class="st0" d="M25.9,10c-0.6-0.2-1.2-0.3-1.9-0.3c-3.6,0-6.5,2.9-6.5,6.5s2.9,6.5,6.5,6.5s6.5-2.9,6.5-6.5
		c0-0.3,0-0.6-0.1-0.9"/>
	<path class="st0" d="M37.9,16.2c0-7.7-6.2-13.9-13.9-13.9c-7.7,0-13.9,6.2-13.9,13.9C10.1,28.3,24,39.4,24,39.4
		S37.9,28.3,37.9,16.2z"/>
	<path class="st0" d="M34,37.5c3.5,0.8,5.8,1.9,5.8,3.2c0,2.3-7.1,4.2-15.8,4.2c-8.7,0-15.8-1.9-15.8-4.2c0-1.3,2.3-2.5,5.8-3.2"/>
</g>
</svg>
