<?xml version="1.0" encoding="utf-8"?>
<!-- Generator: Adobe Illustrator 26.3.1, SVG Export Plug-In . SVG Version: 6.00 Build 0)  -->
<svg version="1.1" id="Layer_1" xmlns="http://www.w3.org/2000/svg" xmlns:xlink="http://www.w3.org/1999/xlink" x="0px" y="0px"
	 viewBox="0 0 48 48" style="enable-background:new 0 0 48 48;" xml:space="preserve">
<style type="text/css">
	.st0{fill:none;stroke:#7A7A7A;stroke-width:1.7199;stroke-linecap:round;stroke-linejoin:round;stroke-miterlimit:10;}
</style>
<g>
	<path class="st0" d="M43.8,20v20.8c0,1-0.8,1.7-1.7,1.7H5.9c-0.9,0-1.7-0.8-1.7-1.7V20c0-0.5,0.2-1,0.6-1.3L23.5,4.9
		c0.3-0.2,0.7-0.2,1,0l18.6,13.8C43.5,19,43.8,19.5,43.8,20z"/>
	<line class="st0" x1="34.3" y1="37.3" x2="4.2" y2="20.2"/>
	<line class="st0" x1="43.8" y1="20.2" x2="27.4" y2="30.3"/>
	<line class="st0" x1="8.5" y1="37.4" x2="13.7" y2="37.4"/>
	<path class="st0" d="M11.1,24.1v-4.8c0-0.5,0.4-0.9,0.9-0.9H36c0.5,0,0.9,0.4,0.9,0.9v5.1"/>
</g>
</svg>
