<?xml version="1.0" encoding="utf-8"?>
<!-- Generator: Adobe Illustrator 26.3.1, SVG Export Plug-In . SVG Version: 6.00 Build 0)  -->
<svg version="1.1" id="Layer_1" xmlns="http://www.w3.org/2000/svg" xmlns:xlink="http://www.w3.org/1999/xlink" x="0px" y="0px"
	 viewBox="0 0 48 48" style="enable-background:new 0 0 48 48;" xml:space="preserve">
<style type="text/css">
	.st0{fill:#C0C5CC;}
	.st1{fill-rule:evenodd;clip-rule:evenodd;fill:#C0C5CC;}
</style>
<path class="st0" d="M23.9,2.3c6,0,11.4,2.4,15.3,6.3c3.9,3.9,6.3,9.3,6.3,15.3c0,6-2.4,11.4-6.3,15.3c-3.9,3.9-9.3,6.3-15.3,6.3
	c-6,0-11.4-2.4-15.3-6.3C4.7,35.4,2.2,30,2.2,24c0-6,2.4-11.4,6.3-15.3C12.5,4.8,17.9,2.3,23.9,2.3L23.9,2.3z M38.6,9.3
	c-3.8-3.8-9-6.1-14.7-6.1c-5.7,0-11,2.3-14.7,6.1s-6.1,9-6.1,14.7c0,5.7,2.3,11,6.1,14.7c3.8,3.8,9,6.1,14.7,6.1
	c5.7,0,11-2.3,14.7-6.1c3.8-3.8,6.1-9,6.1-14.7C44.7,18.3,42.4,13,38.6,9.3L38.6,9.3z"/>
<path class="st1" d="M27.2,17.9c0.7,0,1.4,0.3,2,0.8c0.5,0.5,0.8,1.3,0.8,2c0,0.7-0.3,1.4-0.8,2c-0.5,0.5-1.3,0.8-2,0.8
	c-0.7,0-1.4-0.3-2-0.8c-0.5-0.5-0.8-1.3-0.8-2c0-0.7,0.3-1.4,0.8-2C25.8,18.1,26.5,17.9,27.2,17.9L27.2,17.9z M25.9,15.5
	c-3.6,2.8-6.8,6.7-9.4,10.6l5.3,5.3l0,0l0.1,0l0.1,0l0,0l0,0l0.1,0l0.1,0l0,0l0,0l0.1,0l0.1,0l0,0l0,0l0.1,0l0.1,0l0.1,0l0.1,0
	l0.1,0l0,0l0.1,0l0.1,0c1-0.7,1.9-1.4,2.9-2.1c0.8-0.6,1.6-1.3,2.4-2l0.1,0l0.1,0l0.1,0l0.1,0l0.1-0.1l0.1,0l0.3-0.2l0.1,0l0.1,0
	l0.1,0l0.1,0l0.1,0l0,0l0,0l0.1,0l0.1,0l0,0c1.2-1.1,2.3-2.4,3.3-3.6c0.9-1.1,1.7-2.3,2.3-3.6c0,0-0.1,0-0.1-0.1l-5.1-5.1
	c0,0,0-0.1-0.1-0.1C28.2,13.9,27,14.6,25.9,15.5L25.9,15.5z"/>
<path class="st1" d="M29.8,13l5.1,5.1c1.1-2.2,1.7-4.5,1.8-6.8C34.3,11.3,32,11.9,29.8,13L29.8,13z"/>
<path class="st1" d="M19,22c0.9-1.1,1.8-2.2,2.7-3.2c-1.7-0.4-3.4-0.1-5,0.6c-2.2,0.9-4.1,2.5-5.4,4l4.9,2.5C17,24.6,18,23.2,19,22
	L19,22z"/>
<path class="st1" d="M21.4,31.6l-5.1-5.1c-0.3,0.4-0.6,0.9-0.8,1.3l4.6,4.6C20.5,32.2,21,31.9,21.4,31.6L21.4,31.6z"/>
<path class="st1" d="M27,28.1 M26.6,28.4 M26.3,28.6 M25.6,29.2 M25.4,29.3 M25,29.6 M24.8,29.8 M24.6,29.9 M23.4,30.8
	c-0.5,0.3-0.9,0.6-1.4,1l2.5,4.9c1.5-1.3,3.1-3.2,4-5.4c0.7-1.6,1-3.3,0.6-5L29,26.3l0,0l-0.1,0.1l0,0l0,0l-0.1,0.1l0,0l-0.1,0.1
	l0,0l0,0l0,0l0,0l0,0l0,0l0,0l0,0l0,0l0,0l0,0l0,0l0,0l0,0l0,0l0,0l0,0l0,0l0,0l0,0l0,0l-0.1,0l0,0l0,0l-0.1,0l0,0l-0.1,0l0,0l0,0
	l0,0l-0.1,0l0,0l0,0l-0.1,0L27,28l-0.1,0l0,0l-0.1,0.1l0,0l0,0l-0.1,0l-0.1,0l-0.1,0l-0.1,0l-0.1,0l-0.1,0l0,0l0,0l-0.1,0l-0.1,0
	l-0.1,0l-0.1,0l-0.1,0.1l0,0l-0.2,0.1l0,0l-0.2,0.1l0,0l-0.1,0.1l-0.1,0l-0.1,0l-0.1,0l-0.1,0l-0.1,0l-0.1,0l-0.1,0l-0.1,0l-0.1,0
	l-0.1,0l-0.1,0l-0.1,0l-0.1,0l-0.1,0l-0.1,0l-0.1,0l-0.1,0l-0.1,0l-0.1,0l-0.1,0l-0.1,0l-0.1,0.1l-0.1,0l-0.1,0l0,0l-0.1,0l-0.1,0
	l-0.1,0.1l-0.1,0l-0.1,0l0,0l-0.1,0l-0.1,0L23.4,30.8L23.4,30.8z"/>
<path class="st1" d="M16.8,33.2c0.7-0.3,1.2-0.9,1.6-1.8l-1.9-1.9c-0.9,0.4-1.5,1-1.8,1.6c-0.3,0.6-0.4,1.5-0.4,2.5
	C15.3,33.6,16.1,33.5,16.8,33.2L16.8,33.2z"/>
</svg>
