<?xml version="1.0" encoding="utf-8"?>
<!-- Generator: Adobe Illustrator 26.3.1, SVG Export Plug-In . SVG Version: 6.00 Build 0)  -->
<svg version="1.1" id="Layer_1" xmlns="http://www.w3.org/2000/svg" xmlns:xlink="http://www.w3.org/1999/xlink" x="0px" y="0px"
	 viewBox="0 0 48 48" style="enable-background:new 0 0 48 48;" xml:space="preserve">
<style type="text/css">
	.st0{fill:url(#path8615_00000145049821497574826320000003982073006978038715_);}
	.st1{fill:url(#path8620_00000003796503622238847520000011226698981047923090_);}
</style>
<g id="layer1" transform="translate(-473.36088,-251.72485)">
	<g id="g1894" transform="translate(428.42338,184.2561)">
		
			<linearGradient id="path8615_00000177461584215056406230000004233066770056038793_" gradientUnits="userSpaceOnUse" x1="98.5806" y1="39.3075" x2="117.1965" y2="20.6293" gradientTransform="matrix(1 0 0 -1 -44.9375 115.4119)">
			<stop  offset="0" style="stop-color:#387EB8"/>
			<stop  offset="1" style="stop-color:#366994"/>
		</linearGradient>
		<path id="path8615" style="fill:url(#path8615_00000177461584215056406230000004233066770056038793_);" d="M68.8,72.7
			c-9.6,0-9,4.1-9,4.1l0,4.3H69v1.3H56.2c0,0-6.1-0.7-6.1,8.9s5.3,9.3,5.3,9.3h3.2v-4.5c0,0-0.2-5.3,5.3-5.3s9,0,9,0S78,91,78,86
			s0-8.3,0-8.3S78.8,72.7,68.8,72.7z M63.8,75.6c0.9,0,1.6,0.7,1.6,1.6c0,0.9-0.7,1.6-1.6,1.6c-0.9,0-1.6-0.7-1.6-1.6
			C62.1,76.4,62.9,75.6,63.8,75.6z"/>
		
			<linearGradient id="path8620_00000097459105132156271510000013131767014476857532_" gradientUnits="userSpaceOnUse" x1="110.0284" y1="27.417" x2="130.0219" y2="8.2622" gradientTransform="matrix(1 0 0 -1 -44.9375 115.4119)">
			<stop  offset="0" style="stop-color:#FFE052"/>
			<stop  offset="1" style="stop-color:#FFC331"/>
		</linearGradient>
		<path id="path8620" style="fill:url(#path8620_00000097459105132156271510000013131767014476857532_);" d="M69.1,110.2
			c9.6,0,9-4.1,9-4.1l0-4.3h-9.1v-1.3h12.7c0,0,6.1,0.7,6.1-8.9c0-9.6-5.3-9.3-5.3-9.3h-3.2v4.5c0,0,0.2,5.3-5.3,5.3c-5.4,0-9,0-9,0
			s-5.1-0.1-5.1,4.9s0,8.3,0,8.3S59.1,110.2,69.1,110.2z M74.1,107.3c-0.9,0-1.6-0.7-1.6-1.6s0.7-1.6,1.6-1.6s1.6,0.7,1.6,1.6
			S75,107.3,74.1,107.3z"/>
	</g>
</g>
</svg>
