<?xml version="1.0" encoding="utf-8"?>
<!-- Generator: Adobe Illustrator 26.3.1, SVG Export Plug-In . SVG Version: 6.00 Build 0)  -->
<svg version="1.1" id="Layer_1" xmlns="http://www.w3.org/2000/svg" xmlns:xlink="http://www.w3.org/1999/xlink" x="0px" y="0px"
	 viewBox="0 0 48 48" style="enable-background:new 0 0 48 48;" xml:space="preserve">
<style type="text/css">
	.st0{fill-rule:evenodd;clip-rule:evenodd;fill:url(#SVGID_1_);}
	.st1{fill-rule:evenodd;clip-rule:evenodd;fill:#FFFFFF;}
</style>
<g>
	
		<linearGradient id="SVGID_1_" gradientUnits="userSpaceOnUse" x1="-938.9388" y1="2293.948" x2="-938.9388" y2="2289.417" gradientTransform="matrix(5 0 0 -5 4718.6938 11482.4121)">
		<stop  offset="0" style="stop-color:#00AEEF"/>
		<stop  offset="0.212" style="stop-color:#0097DC"/>
		<stop  offset="0.519" style="stop-color:#007CC5"/>
		<stop  offset="0.792" style="stop-color:#006CB8"/>
		<stop  offset="1" style="stop-color:#0066B3"/>
	</linearGradient>
	<path class="st0" d="M1.1,35.3h23.1l22.7-22.7H1.1L1.1,35.3"/>
	<path class="st1" d="M28.3,17.2h-4.5l0,10.6l-3.9-10.6h-3.9l-3.4,8.9c-0.4-2.3-2.7-3-4.5-3.6c-1.2-0.4-2.5-1-2.5-1.6
		c0-0.5,0.7-1,2-0.9c0.9,0,1.7,0.1,3.3,0.9l1.6-2.7C11,17.4,9,16.9,7.3,16.9h0c-1.9,0-3.5,0.6-4.5,1.6c-0.7,0.7-1.1,1.6-1.1,2.6
		c0,1.4,0.5,2.4,1.5,3.1c0.9,0.7,2.1,1.1,3.1,1.4c1.3,0.4,2.3,0.7,2.3,1.4c0,0.3-0.1,0.5-0.3,0.7c-0.3,0.3-0.8,0.4-1.5,0.5
		c-1.3,0-2.2-0.2-3.7-1.1L1.7,30c1.5,0.9,3.1,1.3,4.9,1.3l0.4,0c1.6,0,2.9-0.4,3.9-1.2c0.1,0,0.1-0.1,0.2-0.1L11,30.8l3.8,0l0.7-1.8
		c0.7,0.2,1.5,0.4,2.4,0.4c0.8,0,1.6-0.1,2.3-0.4l0.5,1.7l6.8,0l0-4H29c3.5,0,5.6-1.8,5.6-4.8C34.6,18.7,32.6,17.2,28.3,17.2
		L28.3,17.2z M17.9,26.3c-0.5,0-1-0.1-1.4-0.3l1.4-4.5h0l1.4,4.5C18.9,26.2,18.4,26.3,17.9,26.3L17.9,26.3z M28.5,23.7h-1v-3.6h1
		c1.3,0,2.4,0.4,2.4,1.8C30.9,23.3,29.9,23.7,28.5,23.7"/>
</g>
</svg>
