<?xml version="1.0" encoding="utf-8"?>
<!-- Generator: Adobe Illustrator 26.3.1, SVG Export Plug-In . SVG Version: 6.00 Build 0)  -->
<svg version="1.1" id="Layer_1" xmlns="http://www.w3.org/2000/svg" xmlns:xlink="http://www.w3.org/1999/xlink" x="0px" y="0px"
	 viewBox="0 0 48 48" style="enable-background:new 0 0 48 48;" xml:space="preserve">
<style type="text/css">
	.st0{fill:#A9A515;}
</style>
<path class="st0" d="M45.2,37.7h-7.1L32,28.1l-6.3,9.5h-6.5l0.3-0.4l9.3-13.6L21.3,12l4.9,11.7L15.7,38c-0.5,0-0.9,0-1.4,0
	c-3.9,0-6.8-1.1-8.8-3.2c-1.8-2-2.7-4.7-2.7-8.2V9.9h5.9v17.1c0,4,1.9,6,5.7,6c3.7,0,5.6-2,5.6-6V9.9h6.9l5.6,8.7l5.8-8.7h6.2
	l-8.9,13.2L45.2,37.7z"/>
</svg>
