<?xml version="1.0" encoding="utf-8"?>
<!-- Generator: Adobe Illustrator 27.5.0, SVG Export Plug-In . SVG Version: 6.00 Build 0)  -->
<svg version="1.1" id="Layer_1" xmlns="http://www.w3.org/2000/svg" xmlns:xlink="http://www.w3.org/1999/xlink" x="0px" y="0px"
	 viewBox="0 0 355.6 271.5" style="enable-background:new 0 0 355.6 271.5;" xml:space="preserve">
<style type="text/css">
	.st0{fill:#FFFFFF;}
	.st1{fill:#FFFFFF;stroke:#FFFFFF;stroke-width:0.2082;stroke-miterlimit:10;}
	.st2{fill:#FFFFFF;stroke:#FFFFFF;stroke-width:0.2082;stroke-linecap:round;stroke-linejoin:round;stroke-miterlimit:10;}
	.st3{opacity:0.2;fill:#FFFFFF;stroke:#FFFFFF;stroke-width:0.2082;stroke-miterlimit:10;enable-background:new    ;}
	.st4{opacity:0.3;fill:#FFFFFF;stroke:#FFFFFF;stroke-width:0.2082;stroke-miterlimit:10;enable-background:new    ;}
	.st5{opacity:0.6;fill:#FFFFFF;stroke:#FFFFFF;stroke-width:0.2082;stroke-miterlimit:10;enable-background:new    ;}
	.st6{opacity:0.5;fill:#FFFFFF;stroke:#FFFFFF;stroke-width:0.2082;stroke-miterlimit:10;enable-background:new    ;}
	.st7{fill:none;stroke:#FFFFFF;stroke-width:0.2082;stroke-linecap:round;stroke-linejoin:round;stroke-miterlimit:10;}
	.st8{fill:none;stroke:#FFFFFF;stroke-width:0.2082;stroke-miterlimit:10;}
	.st9{fill:#C9C9C8;}
	.st10{fill:#808080;}
	.st11{fill:#959494;}
	.st12{fill:#B3B1B3;}
	.st13{fill:none;stroke:#333333;stroke-width:0.2082;stroke-miterlimit:10;}
	.st14{fill:none;stroke:#333333;stroke-width:0.2082;stroke-linecap:round;stroke-linejoin:round;stroke-miterlimit:10;}
	.st15{fill:#FFFFFF;stroke:#333333;stroke-width:0.2082;stroke-miterlimit:10;}
	.st16{opacity:0.2;fill:#283A84;enable-background:new    ;}
	.st17{opacity:0.3;fill:#283A84;enable-background:new    ;}
	.st18{opacity:0.6;fill:#283A84;enable-background:new    ;}
	.st19{opacity:0.5;fill:#283A84;enable-background:new    ;}
	.st20{fill:none;stroke:#283A84;stroke-width:0.2082;stroke-miterlimit:10;}
	.st21{fill:#283A84;}
	.st22{fill:#4D4E4E;}
</style>
<g>
	<g>
		<g>
			<g>
				<path id="SVGID_1_" d="M206,153.5c-3,0-5.8-1.8-7-4.7l-35.6-90c-0.6-1.4-1.7-1.6-2.3-1.6s-1.8,0.2-2.3,1.5L131,126.3
					c-6.8,15.9-22.4,26.2-39.7,26.2H63.7c-8.1,0-15.4-4.4-19.2-11.6c-3.8-7.2-3.3-15.7,1.3-22.4l0.3-0.4L87,72.4
					c1.9-3,2-6.6,0.4-9.7c-1.7-3.3-4.9-5.2-8.6-5.2H49.1c-4.2,0-7.6-3.4-7.6-7.6s3.4-7.6,7.6-7.6h29.6c9.3,0,17.7,5.1,22,13.3
					s3.7,18-1.5,25.7L99,81.7l-40.9,45.6c-1.7,2.8-0.7,5.4-0.2,6.4c0.6,1.1,2.2,3.5,5.8,3.5h27.6c11.2,0,21.3-6.7,25.7-17l27.9-67.4
					c2.8-6.6,9.3-10.8,16.4-10.7c7.2,0.1,13.5,4.4,16.2,11l35.6,90c1.6,3.9-0.3,8.3-4.2,9.9C208,153.3,207,153.5,206,153.5z M93,77
					L93,77L93,77z"/>
			</g>
		</g>
	</g>
	<rect x="225.8" y="127.5" class="st0" width="54.5" height="48.8"/>
	<g>
		<polygon class="st1" points="190.8,141.3 192.4,127.1 199,117.9 201.2,106.7 207.3,114.1 		"/>
		<polygon class="st1" points="190.1,149 184.3,143.7 181.1,132.8 182.8,117 192.4,127.1 190.8,141.3 		"/>
		<polygon class="st1" points="181.1,132.8 187.4,133.1 182.8,117 		"/>
		<polygon class="st1" points="203.1,204.5 196.1,188.9 185.5,182.9 171.4,182 159.8,191.8 170.5,203.1 192,206.7 		"/>
		<polygon class="st1" points="203.1,204.5 196.1,188.9 185.5,182.9 171.4,182 159.8,191.8 170.5,203.1 192,206.7 		"/>
		<polygon class="st1" points="196,188.8 186.4,192.9 185.5,182.9 		"/>
		<polygon class="st1" points="171.4,182 186.4,192.9 185.5,182.9 		"/>
		<polygon class="st1" points="196.1,188.9 185.5,182.9 171.4,182 168.4,172.6 162.3,164.5 175.7,163.9 187.9,169.8 		"/>
		<polygon class="st1" points="196.1,188.9 185.5,182.9 182.9,174.7 		"/>
		<polygon class="st1" points="189.1,158 183,158.4 172.9,155.8 163.9,159.9 171.5,147.5 184.3,143.7 190.1,149 		"/>
		<polygon class="st1" points="275,220.2 267.4,213.3 275.9,207.4 283.4,206 292.9,210 287.5,218.7 		"/>
		<polygon class="st1" points="217.3,209.8 238.8,217.9 267.4,213.3 280.4,225.1 251.4,226.2 221,219 		"/>
		<polygon class="st1" points="217.5,209.9 221,219 238.8,217.9 		"/>
		<polygon class="st1" points="251.4,226.2 238.8,217.9 221,219 		"/>
		<polygon class="st1" points="280.4,225.1 251.4,226.2 238.8,217.9 		"/>
		<polygon class="st1" points="280.4,225.1 267.4,213.3 238.8,217.9 		"/>
		<polygon class="st1" points="217.5,209.9 221,219 238.8,217.9 		"/>
		<polygon class="st2" points="251.4,226.2 238.8,217.9 221,219 		"/>
		<polygon class="st2" points="280.4,225.1 251.4,226.2 238.8,217.9 		"/>
		<polygon class="st2" points="280.4,225.1 267.4,213.3 238.8,217.9 		"/>
		<polygon class="st1" points="203.1,204.5 192,206.7 200.4,222.7 209.6,227.9 224.3,227.3 217.5,209.9 		"/>
		<polygon class="st1" points="203.1,204.5 192,206.7 200.4,222.7 209.6,227.9 224.3,227.3 217.5,209.9 		"/>
		<polygon class="st1" points="207.6,211.9 203.1,204.5 192,206.7 		"/>
		<polygon class="st1" points="200.4,222.7 207.6,211.9 192,206.7 		"/>
		<polygon class="st1" points="217.5,209.9 224.3,227.3 207.6,211.9 		"/>
		<polygon class="st1" points="203.1,204.5 217.5,209.9 207.6,211.9 		"/>
		<polygon class="st1" points="192,206.7 170.5,203.1 186.4,192.9 		"/>
		<polygon class="st1" points="192,206.7 186.4,192.9 203.1,204.5 		"/>
		<polygon class="st1" points="196.1,188.8 186.4,192.9 203.1,204.5 		"/>
		<polygon class="st1" points="190.8,141.3 192.4,127.1 199,117.9 201.2,106.7 207.3,114.1 		"/>
		<polygon class="st1" points="190.1,149 184.3,143.7 181.1,132.8 182.8,117 192.4,127.1 190.8,141.3 		"/>
		<polygon class="st1" points="189.1,158 183,158.4 172.9,155.8 163.9,159.9 171.5,147.5 184.3,143.7 190.1,149 		"/>
		<polygon class="st1" points="203.1,204.5 196.1,188.9 185.5,182.9 171.4,182 159.8,191.8 170.5,203.1 192,206.7 		"/>
		<polygon class="st2" points="217.3,209.8 238.8,217.9 267.4,213.3 280.4,225.1 251.4,226.2 221,219 		"/>
		<polygon class="st1" points="275,220.2 267.4,213.3 275.9,207.4 283.4,206 292.9,210 287.5,218.7 		"/>
		<polygon class="st3" points="267.3,123.8 288.4,114.1 280.3,135.9 		"/>
		<polygon class="st3" points="267.3,123.8 269.9,106.3 252.4,115.6 		"/>
		<polygon class="st3" points="280.2,136 297.6,132.5 289.3,150.5 		"/>
		<polygon class="st3" points="289.3,150.5 304.5,148.4 292.9,164.2 		"/>
		<polygon class="st3" points="293,171.1 292.9,164.2 307.6,162.1 301.4,170.8 		"/>
		<polygon class="st3" points="252.4,115.6 253.6,100.3 238.5,112.7 		"/>
		<polygon class="st4" points="288.5,140 297.6,132.5 289.3,150.5 		"/>
		<polygon class="st4" points="294.8,154.6 304.5,148.4 292.9,164.2 		"/>
		<polygon class="st4" points="252.4,115.6 269.9,106.3 262.9,115.8 		"/>
		<polygon class="st4" points="238.5,112.7 253.6,100.3 247.8,110.1 		"/>
		<polygon class="st5" points="278.4,125 288.4,114.1 280.3,135.9 		"/>
		<polygon class="st5" points="267.3,123.8 269.9,106.3 262.9,115.8 		"/>
		<polygon class="st5" points="252.4,115.6 253.6,100.3 247.8,110.1 		"/>
		<polygon class="st5" points="278.4,125 288.4,114.1 267.3,123.8 		"/>
		<polygon class="st5" points="288.5,140 297.6,132.5 280.2,136 		"/>
		<polygon class="st5" points="294.8,154.6 304.5,148.4 289.3,150.5 		"/>
		<polygon class="st5" points="292.9,164.2 307.6,162.1 297.9,168.1 		"/>
		<polygon class="st4" points="301.4,170.8 307.6,162.1 297.9,168.1 		"/>
		<polygon class="st4" points="301.4,170.8 293,171.1 297.9,168.1 		"/>
		<polygon class="st3" points="231.6,113 238.5,112.7 239.8,98 231.4,104.7 		"/>
		<polygon class="st4" points="239.8,98 231.4,104.7 234.4,108 		"/>
		<polygon class="st5" points="239.8,98 238.5,112.7 234.4,108 		"/>
		<polygon class="st4" points="231.6,113 231.4,104.7 234.4,108 		"/>
		<polygon class="st3" points="268.3,197.7 279.2,171.3 301.4,170.8 293.3,195.4 		"/>
		<polygon class="st4" points="291.8,178.5 268.3,197.7 279.2,171.3 		"/>
		<polygon class="st4" points="291.8,178.5 293.1,170.9 279.2,171.3 		"/>
		<polygon class="st5" points="291.8,178.5 293.1,170.9 301.4,170.8 		"/>
		<polygon class="st4" points="293.3,195.4 301.4,170.8 291.8,178.5 		"/>
		<polygon class="st3" points="293.3,195.4 301.4,170.8 313.4,173.4 		"/>
		<polygon class="st3" points="244.2,191.1 253.6,162.1 283.4,160.8 268.3,197.7 		"/>
		<polygon class="st4" points="244.2,191.1 253.6,162.1 271.4,169.5 		"/>
		<polygon class="st5" points="283.4,160.8 253.6,162.1 271.4,169.5 		"/>
		<polygon class="st5" points="283.4,160.8 268.3,197.7 271.4,169.5 		"/>
		<polygon class="st3" points="238.8,217.9 268.3,197.7 293.3,195.4 267.4,213.3 		"/>
		<polygon class="st4" points="293.3,195.4 267.4,213.3 273.7,202.8 		"/>
		<polygon class="st6" points="293.3,195.4 268.3,197.7 273.7,202.8 		"/>
		<polygon class="st4" points="238.8,217.9 268.3,197.7 273.7,202.8 		"/>
		<polygon class="st3" points="207.3,114.1 231.4,104.7 228.2,92.8 		"/>
		<polygon class="st3" points="206.5,139.2 232.2,126.8 231.4,104.7 207.3,114.1 		"/>
		<polygon class="st4" points="224.3,114.6 206.5,139.2 232.2,126.8 		"/>
		<polygon class="st4" points="224.3,114.6 231.6,113 232.2,126.8 		"/>
		<polygon class="st5" points="224.3,114.6 231.6,113 231.4,104.7 		"/>
		<polygon class="st4" points="224.3,114.6 207.3,114.1 231.4,104.7 		"/>
		<polygon class="st3" points="214.4,162.9 242.7,151.6 242.5,122.1 206.5,139.2 		"/>
		<polygon class="st5" points="206.5,139.2 232.2,126.8 234.4,134.6 		"/>
		<polygon class="st4" points="214.4,162.9 242.7,151.6 234.4,134.6 		"/>
		<polygon class="st5" points="234.4,134.6 242.5,122.1 232.2,126.8 		"/>
		<polygon class="st5" points="242.5,122.1 242.7,151.6 234.4,134.6 		"/>
		<polygon class="st3" points="187.9,169.8 206.5,139.2 207.3,114.1 190.9,141 		"/>
		<polygon class="st4" points="201,134 187.9,169.8 206.5,139.2 		"/>
		<polygon class="st5" points="201,134 207.3,114.1 206.5,139.2 		"/>
		<polygon class="st4" points="201,134 207.3,114.1 190.9,141 		"/>
		<polygon class="st3" points="203,204.4 244.2,191.1 268.3,197.7 238.8,217.9 		"/>
		<polygon class="st4" points="250.7,200.1 203,204.4 244.2,191.1 		"/>
		<polygon class="st6" points="250.7,200.1 268.3,197.7 244.2,191.1 		"/>
		<polygon class="st4" points="250.7,200.1 268.3,197.7 238.8,217.9 		"/>
		<polygon class="st3" points="203,204.4 214.4,162.9 206.5,139.2 187.9,169.8 		"/>
		<polygon class="st5" points="205,156.9 206.3,139.4 214.4,162.9 		"/>
		<polygon class="st4" points="205,156.9 187.9,169.8 206.3,139.4 		"/>
		<polygon class="st4" points="205,156.9 214.4,162.9 203,204.4 		"/>
		<polygon class="st3" points="203,204.4 214.4,162.9 259.2,145 244.3,191 		"/>
		<polygon class="st5" points="242,164.1 242.7,151.6 259.2,145 253.9,162.2 		"/>
		<polygon class="st4" points="242,164.1 244.3,191 253.6,162.1 		"/>
		<polygon class="st4" points="242,164.1 214.4,162.9 242.7,151.6 		"/>
		<polygon class="st1" points="159.8,191.8 170.5,203.1 186.4,192.9 		"/>
		<polygon class="st1" points="192,206.7 170.5,203.1 186.4,192.9 		"/>
		<polygon class="st2" points="171.4,182 186.4,192.9 185.5,182.9 		"/>
		<polygon class="st1" points="192,206.7 186.4,192.9 203.1,204.5 		"/>
		<polygon class="st2" points="196.1,188.8 186.4,192.9 203.1,204.5 		"/>
		<polygon class="st1" points="159.8,191.8 170.5,203.1 186.4,192.9 		"/>
		<polygon class="st1" points="203.1,204.5 192,206.7 200.4,222.7 209.6,227.9 224.3,227.3 217.5,209.9 		"/>
		<polygon class="st1" points="207.6,211.9 203.1,204.5 192,206.7 		"/>
		<polygon class="st1" points="200.4,222.7 207.6,211.9 192,206.7 		"/>
		<polygon class="st1" points="209.6,227.9 200.4,222.7 207.6,211.9 		"/>
		<polygon class="st1" points="224.3,227.3 207.6,211.9 209.6,227.9 		"/>
		<polygon class="st1" points="217.5,209.9 224.3,227.3 207.6,211.9 		"/>
		<polygon class="st1" points="203.1,204.5 217.5,209.9 207.6,211.9 		"/>
		<polygon class="st1" points="275,220.2 287.5,218.7 275.9,213.1 		"/>
		<polygon class="st1" points="292.9,210 287.5,218.7 275.9,213.1 		"/>
		<polygon class="st1" points="283.4,206 275.9,213.1 292.9,210 		"/>
		<polygon class="st1" points="275.9,207.4 275.9,213.1 283.4,206 		"/>
		<polygon class="st1" points="267.4,213.3 275.9,207.4 275.9,213.1 		"/>
		<polygon class="st1" points="275,220.2 275.9,213.1 267.4,213.3 		"/>
		<polygon class="st2" points="275,220.2 287.5,218.7 275.9,213.1 		"/>
		<polygon class="st2" points="292.9,210 287.5,218.7 275.9,213.1 		"/>
		<polygon class="st2" points="283.4,206 275.9,213.1 292.9,210 		"/>
		<polygon class="st2" points="275.9,207.4 275.9,213.1 283.4,206 		"/>
		<polygon class="st2" points="267.4,213.3 275.9,207.4 275.9,213.1 		"/>
		<polygon class="st2" points="275,220.2 275.9,213.1 267.4,213.3 		"/>
		<polygon class="st1" points="196.1,188.9 185.5,182.9 171.4,182 168.4,172.6 162.3,164.5 175.7,163.9 187.9,169.8 		"/>
		<polygon class="st1" points="187.9,169.8 196.1,188.9 182.9,174.7 		"/>
		<polygon class="st1" points="175.7,163.9 182.9,174.7 187.9,169.8 		"/>
		<polygon class="st1" points="162.3,164.5 175.7,163.9 182.9,174.7 		"/>
		<polygon class="st1" points="168.4,172.6 182.9,174.7 162.3,164.5 		"/>
		<polygon class="st1" points="171.4,182 168.4,172.6 182.9,174.7 		"/>
		<polygon class="st1" points="185.5,182.9 171.4,182 182.9,174.7 		"/>
		<polygon class="st2" points="196.1,188.9 185.5,182.9 182.9,174.7 		"/>
		<polygon class="st2" points="187.9,169.8 196.1,188.9 182.9,174.7 		"/>
		<polygon class="st2" points="175.7,163.9 182.9,174.7 187.9,169.8 		"/>
		<polygon class="st2" points="162.3,164.5 175.7,163.9 182.9,174.7 		"/>
		<polygon class="st2" points="168.4,172.6 182.9,174.7 162.3,164.5 		"/>
		<polygon class="st2" points="171.4,182 168.4,172.6 182.9,174.7 		"/>
		<polygon class="st2" points="185.5,182.9 171.4,182 182.9,174.7 		"/>
		<polygon class="st1" points="163.9,159.9 176.4,149 172.9,155.8 		"/>
		<polygon class="st1" points="171.5,147.5 176.4,149 163.9,159.9 		"/>
		<polygon class="st1" points="184.3,143.7 176.4,149 171.5,147.5 		"/>
		<polygon class="st1" points="190.1,149 184.3,143.7 176.4,149 		"/>
		<polygon class="st1" points="189.1,158 190.1,149 176.4,149 		"/>
		<polygon class="st1" points="183,158.4 176.4,149 189.1,158 		"/>
		<polygon class="st1" points="172.9,155.8 176.4,149 183,158.4 		"/>
		<polygon class="st2" points="163.9,159.9 176.4,149 172.9,155.8 		"/>
		<polygon class="st2" points="171.5,147.5 176.4,149 163.9,159.9 		"/>
		<polygon class="st2" points="184.3,143.7 176.4,149 171.5,147.5 		"/>
		<polygon class="st2" points="190.1,149 184.3,143.7 176.4,149 		"/>
		<polygon class="st2" points="189.1,158 190.1,149 176.4,149 		"/>
		<polygon class="st2" points="183,158.4 176.4,149 189.1,158 		"/>
		<polygon class="st2" points="172.9,155.8 176.4,149 183,158.4 		"/>
		<polygon class="st1" points="182.8,117 187.4,133.1 192.4,127.1 		"/>
		<polygon class="st1" points="184.3,143.7 187.4,133.1 181.1,132.8 		"/>
		<polygon class="st1" points="190.1,149 184.3,143.7 187.4,133.1 		"/>
		<polygon class="st1" points="192.4,127.1 187.4,133.1 190.9,141 		"/>
		<polygon class="st1" points="190.1,149 187.4,133.1 190.9,141 		"/>
		<polygon class="st2" points="182.8,117 187.4,133.1 192.4,127.1 		"/>
		<polygon class="st2" points="184.3,143.7 187.4,133.1 181.1,132.8 		"/>
		<polygon class="st2" points="190.1,149 184.3,143.7 187.4,133.1 		"/>
		<polygon class="st2" points="192.4,127.1 187.4,133.1 190.9,141 		"/>
		<polygon class="st2" points="190.1,149 187.4,133.1 190.9,141 		"/>
		<polygon class="st1" points="201.2,106.7 201.5,120.6 199,117.9 		"/>
		<polygon class="st1" points="207.3,114.1 201.5,120.6 201.2,106.7 		"/>
		<polygon class="st1" points="192.4,127.1 201.5,120.6 199,117.9 		"/>
		<polygon class="st1" points="190.9,141 192.4,127.1 201.5,120.6 		"/>
		<polygon class="st1" points="207.3,114.1 190.9,141 201.5,120.6 		"/>
		<polygon class="st2" points="201.2,106.7 201.5,120.6 199,117.9 		"/>
		<polygon class="st2" points="207.3,114.1 201.5,120.6 201.2,106.7 		"/>
		<polygon class="st2" points="192.4,127.1 201.5,120.6 199,117.9 		"/>
		<polygon class="st2" points="190.9,141 192.4,127.1 201.5,120.6 		"/>
		<polygon class="st2" points="207.3,114.1 190.9,141 201.5,120.6 		"/>
		<polygon class="st1" points="252.4,115.6 253.6,100.3 238.5,112.7 		"/>
		<polygon class="st1" points="203,204.4 214.4,162.9 259.2,145 244.3,191 		"/>
		<polygon class="st1" points="267.3,123.8 288.4,114.1 280.3,135.9 		"/>
		<polygon class="st1" points="214.4,162.9 242.7,151.6 242.5,122.1 206.5,139.2 		"/>
		<polygon class="st1" points="206.5,139.2 232.2,126.8 231.4,104.7 207.3,114.1 		"/>
		<polygon class="st1" points="203,204.4 214.4,162.9 206.5,139.2 187.9,169.8 		"/>
		<polygon class="st1" points="187.9,169.8 206.5,139.2 207.3,114.1 190.9,141 		"/>
		<polygon class="st1" points="267.3,123.8 269.9,106.3 252.4,115.6 		"/>
		<polygon class="st1" points="231.6,113 238.5,112.7 239.8,98 231.4,104.7 		"/>
		<polygon class="st1" points="207.3,114.1 231.4,104.7 228.2,92.8 		"/>
		<polyline class="st1" points="231.6,113 224.3,114.6 232.2,126.8 234.4,134.6 242.5,122 		"/>
		<polyline class="st1" points="224.3,114.6 207.3,114.1 201,134 187.9,169.8 205,156.9 206.5,139.2 224.3,114.6 231.4,104.7 
			238.5,112.7 247.8,110.1 252.4,115.6 262.9,115.8 267.3,123.8 278.2,124.9 280.2,136 288.5,140 289.3,150.5 294.8,154.6 
			292.9,164.2 301.4,170.8 291.8,178.5 268.3,197.7 250.7,200.1 238.8,217.9 273.7,202.8 293.3,195.4 291.8,178.5 		"/>
		<polyline class="st1" points="190.9,141 201,134 206.5,139.2 234.4,134.6 214.5,162.8 205,156.9 203,204.4 242,164.1 242.7,151.6 
			234.4,134.6 		"/>
		<line class="st7" x1="259.2" y1="145" x2="268.1" y2="135.3"/>
		<polyline class="st1" points="214.5,162.8 242,164.1 259.2,145 		"/>
		<polygon class="st1" points="244.2,191.1 253.6,162.1 283.4,160.8 268.3,197.7 		"/>
		<polygon class="st1" points="268.3,197.7 279.2,171.3 301.4,170.8 293.3,195.4 		"/>
		<polygon class="st1" points="203,204.4 244.2,191.1 268.3,197.7 238.8,217.9 		"/>
		<polygon class="st1" points="238.8,217.9 268.3,197.7 293.3,195.4 267.4,213.3 		"/>
		<polygon class="st1" points="280.2,136 297.6,132.5 289.3,150.5 		"/>
		<polygon class="st1" points="289.3,150.5 304.5,148.4 292.9,164.2 		"/>
		<polygon class="st1" points="293,171.1 292.9,164.2 307.6,162.1 301.4,170.8 		"/>
		<polygon class="st1" points="293.3,195.4 301.4,170.8 313.4,173.4 		"/>
		<polyline class="st1" points="293,171.1 291.8,178.5 279.2,171.3 271.4,169.5 283.5,160.8 		"/>
		<polyline class="st1" points="271.4,169.5 253.9,162.2 242,164.1 		"/>
		<polyline class="st1" points="267.4,213.3 273.7,202.8 268.3,197.7 271.4,169.5 244.3,191 250.7,200.1 203,204.4 		"/>
		<line class="st8" x1="242" y1="164.1" x2="244.3" y2="191"/>
		<line class="st8" x1="253.8" y1="100" x2="247.8" y2="110.1"/>
		<line class="st8" x1="270.1" y1="106.2" x2="262.9" y2="115.8"/>
		<line class="st8" x1="288.5" y1="114.1" x2="278.2" y2="124.9"/>
		<line class="st8" x1="297.6" y1="132.5" x2="288.5" y2="140"/>
		<line class="st8" x1="304.8" y1="148.2" x2="294.8" y2="154.6"/>
		<polyline class="st2" points="280.2,136 268.1,135.3 267.3,123.8 		"/>
		<polyline class="st2" points="267.3,123.8 268.1,135.3 252.4,115.6 		"/>
		<polyline class="st2" points="252.4,115.6 268.1,135.3 238.5,112.7 		"/>
		<polyline class="st2" points="280.2,136 268.1,135.3 289.3,150.5 		"/>
		<polyline class="st2" points="292.9,164.2 268.1,135.3 231.6,113 		"/>
		<polyline class="st2" points="269.1,161.4 268.1,135.3 242.6,134.4 		"/>
		<g>
			<circle class="st1" cx="270.1" cy="106.2" r="1.5"/>
			<circle class="st1" cx="253.8" cy="100" r="1.5"/>
			<circle class="st1" cx="240" cy="97.6" r="1.5"/>
			<circle class="st1" cx="228.3" cy="92.7" r="1.5"/>
			<circle class="st1" cx="231.4" cy="104.7" r="1.5"/>
			<circle class="st1" cx="207.3" cy="114.1" r="1.5"/>
			<circle class="st1" cx="190.9" cy="141" r="1.5"/>
			<circle class="st1" cx="206.5" cy="139.2" r="1.5"/>
			<circle class="st1" cx="187.9" cy="169.8" r="1.5"/>
			<circle class="st1" cx="182.8" cy="174.7" r="1.5"/>
			<circle class="st1" cx="162.1" cy="164.4" r="1.5"/>
			<circle class="st1" cx="175.8" cy="164" r="1.5"/>
			<circle class="st1" cx="176.4" cy="149.1" r="1.5"/>
			<circle class="st1" cx="163.9" cy="159.7" r="1.5"/>
			<circle class="st1" cx="171.5" cy="147.4" r="1.5"/>
			<circle class="st1" cx="173" cy="155.7" r="1.5"/>
			<circle class="st1" cx="182.9" cy="158.5" r="1.5"/>
			<circle class="st1" cx="184.4" cy="143.7" r="1.5"/>
			<circle class="st1" cx="181" cy="132.9" r="1.5"/>
			<circle class="st1" cx="182.9" cy="116.9" r="1.5"/>
			<circle class="st1" cx="192.4" cy="127.1" r="1.5"/>
			<circle class="st1" cx="187.4" cy="133.1" r="1.5"/>
			<circle class="st1" cx="201.2" cy="120.3" r="1.5"/>
			<circle class="st1" cx="201" cy="106.7" r="1.5"/>
			<circle class="st1" cx="268" cy="135.2" r="1.5"/>
			<circle class="st1" cx="198.8" cy="117.6" r="1.5"/>
			<circle class="st1" cx="168.8" cy="172.5" r="1.5"/>
			<circle class="st1" cx="171.4" cy="182" r="1.5"/>
			<circle class="st1" cx="185.3" cy="183.1" r="1.5"/>
			<circle class="st1" cx="159.5" cy="191.6" r="1.5"/>
			<circle class="st1" cx="186.4" cy="193.1" r="1.5"/>
			<circle class="st1" cx="170.4" cy="203.2" r="1.5"/>
			<circle class="st1" cx="192" cy="206.8" r="1.5"/>
			<circle class="st1" cx="207.6" cy="212" r="1.5"/>
			<circle class="st1" cx="200.2" cy="222.8" r="1.5"/>
			<circle class="st1" cx="209.6" cy="227.9" r="1.5"/>
			<circle class="st1" cx="224.1" cy="227.4" r="1.5"/>
			<circle class="st1" cx="251" cy="226.4" r="1.5"/>
			<circle class="st1" cx="280.2" cy="224.8" r="1.5"/>
			<circle class="st1" cx="276.3" cy="213.1" r="1.5"/>
			<circle class="st1" cx="287.2" cy="218.9" r="1.5"/>
			<circle class="st1" cx="292.6" cy="210.1" r="1.5"/>
			<circle class="st1" cx="283.4" cy="205.8" r="1.5"/>
			<circle class="st1" cx="232.2" cy="126.8" r="1.5"/>
			<circle class="st1" cx="234.4" cy="134.6" r="1.5"/>
			<circle class="st1" cx="242" cy="164.1" r="1.5"/>
			<circle class="st1" cx="205" cy="156.9" r="1.5"/>
			<circle class="st1" cx="201" cy="134" r="1.5"/>
			<circle class="st1" cx="224.3" cy="114.6" r="1.5"/>
			<circle class="st1" cx="242.5" cy="122" r="1.5"/>
			<circle class="st1" cx="242.7" cy="151.6" r="1.5"/>
			<circle class="st1" cx="288.5" cy="114.1" r="1.5"/>
			<circle class="st1" cx="278.2" cy="124.9" r="1.5"/>
			<circle class="st1" cx="259.1" cy="145.1" r="1.5"/>
			<circle class="st1" cx="214.5" cy="162.8" r="1.5"/>
			<circle class="st1" cx="231.6" cy="113" r="1.5"/>
			<circle class="st1" cx="238.5" cy="112.7" r="1.5"/>
			<circle class="st1" cx="252.4" cy="115.6" r="1.5"/>
			<circle class="st1" cx="262.9" cy="115.8" r="1.5"/>
			<circle class="st1" cx="288.5" cy="140" r="1.5"/>
			<circle class="st1" cx="247.8" cy="110.1" r="1.5"/>
			<circle class="st1" cx="294.8" cy="154.6" r="1.5"/>
			<circle class="st1" cx="267.3" cy="123.8" r="1.5"/>
			<circle class="st1" cx="297.7" cy="132.3" r="1.5"/>
			<circle class="st1" cx="304.8" cy="148.2" r="1.5"/>
			<circle class="st1" cx="307.9" cy="161.9" r="1.5"/>
			<circle class="st1" cx="313.5" cy="173.3" r="1.5"/>
			<circle class="st1" cx="301.4" cy="170.8" r="1.5"/>
			<circle class="st1" cx="293.3" cy="195.4" r="1.5"/>
			<circle class="st1" cx="267.4" cy="213.3" r="1.5"/>
			<circle class="st1" cx="268.3" cy="197.7" r="1.5"/>
			<circle class="st1" cx="238.8" cy="217.9" r="1.5"/>
			<circle class="st1" cx="279.2" cy="171.3" r="1.5"/>
			<circle class="st1" cx="271.4" cy="169.5" r="1.5"/>
			<circle class="st1" cx="250.7" cy="200.1" r="1.5"/>
			<circle class="st1" cx="273.7" cy="202.8" r="1.5"/>
			<circle class="st1" cx="291.8" cy="178.5" r="1.5"/>
			<circle class="st1" cx="283.5" cy="160.8" r="1.5"/>
			<circle class="st1" cx="253.6" cy="162.1" r="1.5"/>
			<circle class="st1" cx="244.3" cy="191" r="1.5"/>
			<circle class="st1" cx="293" cy="171.1" r="1.5"/>
			<circle class="st1" cx="292.9" cy="164.2" r="1.5"/>
			<circle class="st1" cx="289.3" cy="150.5" r="1.5"/>
			<circle class="st1" cx="280.2" cy="136" r="1.5"/>
			<circle class="st1" cx="234.3" cy="108.2" r="1.5"/>
			<circle class="st1" cx="297.7" cy="168.2" r="1.5"/>
		</g>
	</g>
	<g>
		<polygon class="st0" points="190.8,141.3 192.4,127.1 199,117.9 201.2,106.7 207.3,114.1 		"/>
		<polygon class="st0" points="190.1,149 184.3,143.7 181.1,132.8 182.8,117 192.4,127.1 190.8,141.3 		"/>
		<polygon class="st9" points="181.1,132.8 187.4,133.1 182.8,117 		"/>
		<polygon class="st0" points="203.1,204.5 196.1,188.9 185.5,182.9 171.4,182 159.8,191.8 170.5,203.1 192,206.7 		"/>
		<polygon class="st9" points="203.1,204.5 196.1,188.9 185.5,182.9 171.4,182 159.8,191.8 170.5,203.1 192,206.7 		"/>
		<polygon class="st10" points="196,188.8 186.4,192.9 185.5,182.9 		"/>
		<polygon class="st11" points="171.4,182 186.4,192.9 185.5,182.9 		"/>
		<polygon class="st0" points="196.1,188.9 185.5,182.9 171.4,182 168.4,172.6 162.3,164.5 175.7,163.9 187.9,169.8 		"/>
		<polygon class="st10" points="196.1,188.9 185.5,182.9 182.9,174.7 		"/>
		<polygon class="st0" points="189.1,158 183,158.4 172.9,155.8 163.9,159.9 171.5,147.5 184.3,143.7 190.1,149 		"/>
		<polygon class="st0" points="275,220.2 267.4,213.3 275.9,207.4 283.4,206 292.9,210 287.5,218.7 		"/>
		<polygon class="st0" points="217.3,209.8 238.8,217.9 267.4,213.3 280.4,225.1 251.4,226.2 221,219 		"/>
		<polygon class="st10" points="217.5,209.9 221,219 238.8,217.9 		"/>
		<polygon class="st11" points="251.4,226.2 238.8,217.9 221,219 		"/>
		<polygon class="st9" points="280.4,225.1 251.4,226.2 238.8,217.9 		"/>
		<polygon class="st12" points="280.4,225.1 267.4,213.3 238.8,217.9 		"/>
		<polygon class="st13" points="217.5,209.9 221,219 238.8,217.9 		"/>
		<polygon class="st14" points="251.4,226.2 238.8,217.9 221,219 		"/>
		<polygon class="st14" points="280.4,225.1 251.4,226.2 238.8,217.9 		"/>
		<polygon class="st14" points="280.4,225.1 267.4,213.3 238.8,217.9 		"/>
		<polygon class="st0" points="203.1,204.5 192,206.7 200.4,222.7 209.6,227.9 224.3,227.3 217.5,209.9 		"/>
		<polygon class="st9" points="203.1,204.5 192,206.7 200.4,222.7 209.6,227.9 224.3,227.3 217.5,209.9 		"/>
		<polygon class="st10" points="207.6,211.9 203.1,204.5 192,206.7 		"/>
		<polygon class="st12" points="200.4,222.7 207.6,211.9 192,206.7 		"/>
		<polygon class="st11" points="217.5,209.9 224.3,227.3 207.6,211.9 		"/>
		<polygon class="st10" points="203.1,204.5 217.5,209.9 207.6,211.9 		"/>
		<polygon class="st12" points="192,206.7 170.5,203.1 186.4,192.9 		"/>
		<polygon class="st11" points="192,206.7 186.4,192.9 203.1,204.5 		"/>
		<polygon class="st10" points="196.1,188.8 186.4,192.9 203.1,204.5 		"/>
		<polygon class="st13" points="190.8,141.3 192.4,127.1 199,117.9 201.2,106.7 207.3,114.1 		"/>
		<polygon class="st13" points="190.1,149 184.3,143.7 181.1,132.8 182.8,117 192.4,127.1 190.8,141.3 		"/>
		<polygon class="st13" points="189.1,158 183,158.4 172.9,155.8 163.9,159.9 171.5,147.5 184.3,143.7 190.1,149 		"/>
		<polygon class="st13" points="203.1,204.5 196.1,188.9 185.5,182.9 171.4,182 159.8,191.8 170.5,203.1 192,206.7 		"/>
		<polygon class="st14" points="217.3,209.8 238.8,217.9 267.4,213.3 280.4,225.1 251.4,226.2 221,219 		"/>
		<polygon class="st15" points="275,220.2 267.4,213.3 275.9,207.4 283.4,206 292.9,210 287.5,218.7 		"/>
		<polygon class="st16" points="267.3,123.8 288.4,114.1 280.3,135.9 		"/>
		<polygon class="st16" points="267.3,123.8 269.9,106.3 252.4,115.6 		"/>
		<polygon class="st16" points="280.2,136 297.6,132.5 289.3,150.5 		"/>
		<polygon class="st16" points="289.3,150.5 304.5,148.4 292.9,164.2 		"/>
		<polygon class="st16" points="293,171.1 292.9,164.2 307.6,162.1 301.4,170.8 		"/>
		<polygon class="st16" points="252.4,115.6 253.6,100.3 238.5,112.7 		"/>
		<polygon class="st17" points="288.5,140 297.6,132.5 289.3,150.5 		"/>
		<polygon class="st17" points="294.8,154.6 304.5,148.4 292.9,164.2 		"/>
		<polygon class="st17" points="252.4,115.6 269.9,106.3 262.9,115.8 		"/>
		<polygon class="st17" points="238.5,112.7 253.6,100.3 247.8,110.1 		"/>
		<polygon class="st18" points="278.4,125 288.4,114.1 280.3,135.9 		"/>
		<polygon class="st18" points="267.3,123.8 269.9,106.3 262.9,115.8 		"/>
		<polygon class="st18" points="252.4,115.6 253.6,100.3 247.8,110.1 		"/>
		<polygon class="st18" points="278.4,125 288.4,114.1 267.3,123.8 		"/>
		<polygon class="st18" points="288.5,140 297.6,132.5 280.2,136 		"/>
		<polygon class="st18" points="294.8,154.6 304.5,148.4 289.3,150.5 		"/>
		<polygon class="st18" points="292.9,164.2 307.6,162.1 297.9,168.1 		"/>
		<polygon class="st17" points="301.4,170.8 307.6,162.1 297.9,168.1 		"/>
		<polygon class="st17" points="301.4,170.8 293,171.1 297.9,168.1 		"/>
		<polygon class="st16" points="231.6,113 238.5,112.7 239.8,98 231.4,104.7 		"/>
		<polygon class="st17" points="239.8,98 231.4,104.7 234.4,108 		"/>
		<polygon class="st18" points="239.8,98 238.5,112.7 234.4,108 		"/>
		<polygon class="st17" points="231.6,113 231.4,104.7 234.4,108 		"/>
		<polygon class="st16" points="268.3,197.7 279.2,171.3 301.4,170.8 293.3,195.4 		"/>
		<polygon class="st17" points="291.8,178.5 268.3,197.7 279.2,171.3 		"/>
		<polygon class="st17" points="291.8,178.5 293.1,170.9 279.2,171.3 		"/>
		<polygon class="st18" points="291.8,178.5 293.1,170.9 301.4,170.8 		"/>
		<polygon class="st17" points="293.3,195.4 301.4,170.8 291.8,178.5 		"/>
		<polygon class="st16" points="293.3,195.4 301.4,170.8 313.4,173.4 		"/>
		<polygon class="st16" points="244.2,191.1 253.6,162.1 283.4,160.8 268.3,197.7 		"/>
		<polygon class="st17" points="244.2,191.1 253.6,162.1 271.4,169.5 		"/>
		<polygon class="st18" points="283.4,160.8 253.6,162.1 271.4,169.5 		"/>
		<polygon class="st18" points="283.4,160.8 268.3,197.7 271.4,169.5 		"/>
		<polygon class="st16" points="238.8,217.9 268.3,197.7 293.3,195.4 267.4,213.3 		"/>
		<polygon class="st17" points="293.3,195.4 267.4,213.3 273.7,202.8 		"/>
		<polygon class="st19" points="293.3,195.4 268.3,197.7 273.7,202.8 		"/>
		<polygon class="st17" points="238.8,217.9 268.3,197.7 273.7,202.8 		"/>
		<polygon class="st16" points="207.3,114.1 231.4,104.7 228.2,92.8 		"/>
		<polygon class="st16" points="206.5,139.2 232.2,126.8 231.4,104.7 207.3,114.1 		"/>
		<polygon class="st17" points="224.3,114.6 206.5,139.2 232.2,126.8 		"/>
		<polygon class="st17" points="224.3,114.6 231.6,113 232.2,126.8 		"/>
		<polygon class="st18" points="224.3,114.6 231.6,113 231.4,104.7 		"/>
		<polygon class="st17" points="224.3,114.6 207.3,114.1 231.4,104.7 		"/>
		<polygon class="st16" points="214.4,162.9 242.7,151.6 242.5,122.1 206.5,139.2 		"/>
		<polygon class="st18" points="206.5,139.2 232.2,126.8 234.4,134.6 		"/>
		<polygon class="st17" points="214.4,162.9 242.7,151.6 234.4,134.6 		"/>
		<polygon class="st18" points="234.4,134.6 242.5,122.1 232.2,126.8 		"/>
		<polygon class="st18" points="242.5,122.1 242.7,151.6 234.4,134.6 		"/>
		<polygon class="st16" points="187.9,169.8 206.5,139.2 207.3,114.1 190.9,141 		"/>
		<polygon class="st17" points="201,134 187.9,169.8 206.5,139.2 		"/>
		<polygon class="st18" points="201,134 207.3,114.1 206.5,139.2 		"/>
		<polygon class="st17" points="201,134 207.3,114.1 190.9,141 		"/>
		<polygon class="st16" points="203,204.4 244.2,191.1 268.3,197.7 238.8,217.9 		"/>
		<polygon class="st17" points="250.7,200.1 203,204.4 244.2,191.1 		"/>
		<polygon class="st19" points="250.7,200.1 268.3,197.7 244.2,191.1 		"/>
		<polygon class="st17" points="250.7,200.1 268.3,197.7 238.8,217.9 		"/>
		<polygon class="st16" points="203,204.4 214.4,162.9 206.5,139.2 187.9,169.8 		"/>
		<polygon class="st18" points="205,156.9 206.3,139.4 214.4,162.9 		"/>
		<polygon class="st17" points="205,156.9 187.9,169.8 206.3,139.4 		"/>
		<polygon class="st17" points="205,156.9 214.4,162.9 203,204.4 		"/>
		<polygon class="st16" points="203,204.4 214.4,162.9 259.2,145 244.3,191 		"/>
		<polygon class="st18" points="242,164.1 242.7,151.6 259.2,145 253.9,162.2 		"/>
		<polygon class="st17" points="242,164.1 244.3,191 253.6,162.1 		"/>
		<polygon class="st17" points="242,164.1 214.4,162.9 242.7,151.6 		"/>
		<polygon class="st13" points="159.8,191.8 170.5,203.1 186.4,192.9 		"/>
		<polygon class="st13" points="192,206.7 170.5,203.1 186.4,192.9 		"/>
		<polygon class="st14" points="171.4,182 186.4,192.9 185.5,182.9 		"/>
		<polygon class="st13" points="192,206.7 186.4,192.9 203.1,204.5 		"/>
		<polygon class="st14" points="196.1,188.8 186.4,192.9 203.1,204.5 		"/>
		<polygon class="st13" points="159.8,191.8 170.5,203.1 186.4,192.9 		"/>
		<polygon class="st13" points="203.1,204.5 192,206.7 200.4,222.7 209.6,227.9 224.3,227.3 217.5,209.9 		"/>
		<polygon class="st13" points="207.6,211.9 203.1,204.5 192,206.7 		"/>
		<polygon class="st13" points="200.4,222.7 207.6,211.9 192,206.7 		"/>
		<polygon class="st13" points="209.6,227.9 200.4,222.7 207.6,211.9 		"/>
		<polygon class="st13" points="224.3,227.3 207.6,211.9 209.6,227.9 		"/>
		<polygon class="st13" points="217.5,209.9 224.3,227.3 207.6,211.9 		"/>
		<polygon class="st13" points="203.1,204.5 217.5,209.9 207.6,211.9 		"/>
		<polygon class="st12" points="275,220.2 287.5,218.7 275.9,213.1 		"/>
		<polygon class="st9" points="292.9,210 287.5,218.7 275.9,213.1 		"/>
		<polygon class="st9" points="283.4,206 275.9,213.1 292.9,210 		"/>
		<polygon class="st11" points="275.9,207.4 275.9,213.1 283.4,206 		"/>
		<polygon class="st10" points="267.4,213.3 275.9,207.4 275.9,213.1 		"/>
		<polygon class="st10" points="275,220.2 275.9,213.1 267.4,213.3 		"/>
		<polygon class="st14" points="275,220.2 287.5,218.7 275.9,213.1 		"/>
		<polygon class="st14" points="292.9,210 287.5,218.7 275.9,213.1 		"/>
		<polygon class="st14" points="283.4,206 275.9,213.1 292.9,210 		"/>
		<polygon class="st14" points="275.9,207.4 275.9,213.1 283.4,206 		"/>
		<polygon class="st14" points="267.4,213.3 275.9,207.4 275.9,213.1 		"/>
		<polygon class="st14" points="275,220.2 275.9,213.1 267.4,213.3 		"/>
		<polygon class="st13" points="196.1,188.9 185.5,182.9 171.4,182 168.4,172.6 162.3,164.5 175.7,163.9 187.9,169.8 		"/>
		<polygon class="st10" points="187.9,169.8 196.1,188.9 182.9,174.7 		"/>
		<polygon class="st12" points="175.7,163.9 182.9,174.7 187.9,169.8 		"/>
		<polygon class="st9" points="162.3,164.5 175.7,163.9 182.9,174.7 		"/>
		<polygon class="st9" points="168.4,172.6 182.9,174.7 162.3,164.5 		"/>
		<polygon class="st12" points="171.4,182 168.4,172.6 182.9,174.7 		"/>
		<polygon class="st11" points="185.5,182.9 171.4,182 182.9,174.7 		"/>
		<polygon class="st14" points="196.1,188.9 185.5,182.9 182.9,174.7 		"/>
		<polygon class="st14" points="187.9,169.8 196.1,188.9 182.9,174.7 		"/>
		<polygon class="st14" points="175.7,163.9 182.9,174.7 187.9,169.8 		"/>
		<polygon class="st14" points="162.3,164.5 175.7,163.9 182.9,174.7 		"/>
		<polygon class="st14" points="168.4,172.6 182.9,174.7 162.3,164.5 		"/>
		<polygon class="st14" points="171.4,182 168.4,172.6 182.9,174.7 		"/>
		<polygon class="st14" points="185.5,182.9 171.4,182 182.9,174.7 		"/>
		<polygon class="st9" points="163.9,159.9 176.4,149 172.9,155.8 		"/>
		<polygon class="st9" points="171.5,147.5 176.4,149 163.9,159.9 		"/>
		<polygon class="st12" points="184.3,143.7 176.4,149 171.5,147.5 		"/>
		<polygon class="st11" points="190.1,149 184.3,143.7 176.4,149 		"/>
		<polygon class="st10" points="189.1,158 190.1,149 176.4,149 		"/>
		<polygon class="st11" points="183,158.4 176.4,149 189.1,158 		"/>
		<polygon class="st12" points="172.9,155.8 176.4,149 183,158.4 		"/>
		<polygon class="st14" points="163.9,159.9 176.4,149 172.9,155.8 		"/>
		<polygon class="st14" points="171.5,147.5 176.4,149 163.9,159.9 		"/>
		<polygon class="st14" points="184.3,143.7 176.4,149 171.5,147.5 		"/>
		<polygon class="st14" points="190.1,149 184.3,143.7 176.4,149 		"/>
		<polygon class="st14" points="189.1,158 190.1,149 176.4,149 		"/>
		<polygon class="st14" points="183,158.4 176.4,149 189.1,158 		"/>
		<polygon class="st14" points="172.9,155.8 176.4,149 183,158.4 		"/>
		<polygon class="st9" points="182.8,117 187.4,133.1 192.4,127.1 		"/>
		<polygon class="st12" points="184.3,143.7 187.4,133.1 181.1,132.8 		"/>
		<polygon class="st10" points="190.1,149 184.3,143.7 187.4,133.1 		"/>
		<polygon class="st11" points="192.4,127.1 187.4,133.1 190.9,141 		"/>
		<polygon class="st10" points="190.1,149 187.4,133.1 190.9,141 		"/>
		<polygon class="st14" points="182.8,117 187.4,133.1 192.4,127.1 		"/>
		<polygon class="st14" points="184.3,143.7 187.4,133.1 181.1,132.8 		"/>
		<polygon class="st14" points="190.1,149 184.3,143.7 187.4,133.1 		"/>
		<polygon class="st14" points="192.4,127.1 187.4,133.1 190.9,141 		"/>
		<polygon class="st14" points="190.1,149 187.4,133.1 190.9,141 		"/>
		<polygon class="st9" points="201.2,106.7 201.5,120.6 199,117.9 		"/>
		<polygon class="st12" points="207.3,114.1 201.5,120.6 201.2,106.7 		"/>
		<polygon class="st12" points="192.4,127.1 201.5,120.6 199,117.9 		"/>
		<polygon class="st11" points="190.9,141 192.4,127.1 201.5,120.6 		"/>
		<polygon class="st10" points="207.3,114.1 190.9,141 201.5,120.6 		"/>
		<polygon class="st14" points="201.2,106.7 201.5,120.6 199,117.9 		"/>
		<polygon class="st14" points="207.3,114.1 201.5,120.6 201.2,106.7 		"/>
		<polygon class="st14" points="192.4,127.1 201.5,120.6 199,117.9 		"/>
		<polygon class="st14" points="190.9,141 192.4,127.1 201.5,120.6 		"/>
		<polygon class="st14" points="207.3,114.1 190.9,141 201.5,120.6 		"/>
		<polygon class="st20" points="252.4,115.6 253.6,100.3 238.5,112.7 		"/>
		<polygon class="st20" points="203,204.4 214.4,162.9 259.2,145 244.3,191 		"/>
		<polygon class="st20" points="267.3,123.8 288.4,114.1 280.3,135.9 		"/>
		<polygon class="st20" points="214.4,162.9 242.7,151.6 242.5,122.1 206.5,139.2 		"/>
		<polygon class="st20" points="206.5,139.2 232.2,126.8 231.4,104.7 207.3,114.1 		"/>
		<polygon class="st20" points="203,204.4 214.4,162.9 206.5,139.2 187.9,169.8 		"/>
		<polygon class="st20" points="187.9,169.8 206.5,139.2 207.3,114.1 190.9,141 		"/>
		<polygon class="st20" points="267.3,123.8 269.9,106.3 252.4,115.6 		"/>
		<polygon class="st20" points="231.6,113 238.5,112.7 239.8,98 231.4,104.7 		"/>
		<polygon class="st20" points="207.3,114.1 231.4,104.7 228.2,92.8 		"/>
		<polyline class="st20" points="239.8,98 231.6,113 224.3,114.6 232.2,126.8 234.4,134.6 242.5,122 		"/>
		<polyline class="st20" points="224.3,114.6 207.3,114.1 201,134 187.9,169.8 205,156.9 206.5,139.2 224.3,114.6 231.4,104.7 
			238.5,112.7 247.8,110.1 252.4,115.6 262.9,115.8 267.3,123.8 278.2,124.9 280.2,136 288.5,140 289.3,150.5 294.8,154.6 
			292.9,164.2 301.4,170.8 291.8,178.5 268.3,197.7 250.7,200.1 238.8,217.9 273.7,202.8 293.3,195.4 291.8,178.5 		"/>
		<polyline class="st20" points="190.9,141 201,134 206.5,139.2 234.4,134.6 214.5,162.8 205,156.9 203,204.4 242,164.1 
			242.7,151.6 234.4,134.6 		"/>
		<line class="st14" x1="259.2" y1="145" x2="268.1" y2="135.3"/>
		<polyline class="st20" points="214.5,162.8 242,164.1 259.2,145 		"/>
		<polygon class="st20" points="244.2,191.1 253.6,162.1 283.4,160.8 268.3,197.7 		"/>
		<polygon class="st20" points="268.3,197.7 279.2,171.3 301.4,170.8 293.3,195.4 		"/>
		<polygon class="st20" points="203,204.4 244.2,191.1 268.3,197.7 238.8,217.9 		"/>
		<polygon class="st20" points="238.8,217.9 268.3,197.7 293.3,195.4 267.4,213.3 		"/>
		<polygon class="st20" points="280.2,136 297.6,132.5 289.3,150.5 		"/>
		<polygon class="st20" points="289.3,150.5 304.5,148.4 292.9,164.2 		"/>
		<polygon class="st20" points="293,171.1 292.9,164.2 307.6,162.1 301.4,170.8 		"/>
		<polygon class="st20" points="293.3,195.4 301.4,170.8 313.4,173.4 		"/>
		<polyline class="st20" points="307.6,162.1 293,171.1 291.8,178.5 279.2,171.3 271.4,169.5 283.5,160.8 		"/>
		<polyline class="st20" points="271.4,169.5 253.9,162.2 242,164.1 		"/>
		<polyline class="st20" points="267.4,213.3 273.7,202.8 268.3,197.7 271.4,169.5 244.3,191 250.7,200.1 203,204.4 		"/>
		<line class="st20" x1="242" y1="164.1" x2="244.3" y2="191"/>
		<line class="st20" x1="253.8" y1="100" x2="247.8" y2="110.1"/>
		<line class="st20" x1="270.1" y1="106.2" x2="262.9" y2="115.8"/>
		<line class="st20" x1="288.5" y1="114.1" x2="278.2" y2="124.9"/>
		<line class="st20" x1="297.6" y1="132.5" x2="288.5" y2="140"/>
		<line class="st20" x1="304.8" y1="148.2" x2="294.8" y2="154.6"/>
		<polyline class="st14" points="280.2,136 268.1,135.3 267.3,123.8 		"/>
		<polyline class="st14" points="267.3,123.8 268.1,135.3 252.4,115.6 		"/>
		<polyline class="st14" points="252.4,115.6 268.1,135.3 238.5,112.7 		"/>
		<polyline class="st14" points="280.2,136 268.1,135.3 289.3,150.5 		"/>
		<polyline class="st14" points="292.9,164.2 268.1,135.3 231.6,113 		"/>
		<polyline class="st14" points="269.1,161.4 268.1,135.3 242.6,134.4 		"/>
		<g>
			<circle class="st21" cx="270.1" cy="106.2" r="1.5"/>
			<circle class="st21" cx="253.8" cy="100" r="1.5"/>
			<circle class="st21" cx="240" cy="97.6" r="1.5"/>
			<circle class="st21" cx="228.3" cy="92.7" r="1.5"/>
			<circle class="st21" cx="231.4" cy="104.7" r="1.5"/>
			<circle class="st21" cx="207.3" cy="114.1" r="1.5"/>
			<circle class="st21" cx="190.9" cy="141" r="1.5"/>
			<circle class="st21" cx="206.5" cy="139.2" r="1.5"/>
			<circle class="st21" cx="187.9" cy="169.8" r="1.5"/>
			<circle class="st22" cx="182.8" cy="174.7" r="1.5"/>
			<circle class="st22" cx="162.1" cy="164.4" r="1.5"/>
			<circle class="st22" cx="175.8" cy="164" r="1.5"/>
			<circle class="st22" cx="176.4" cy="149.1" r="1.5"/>
			<circle class="st22" cx="163.9" cy="159.7" r="1.5"/>
			<circle class="st22" cx="171.5" cy="147.4" r="1.5"/>
			<circle class="st22" cx="173" cy="155.7" r="1.5"/>
			<circle class="st22" cx="182.9" cy="158.5" r="1.5"/>
			<circle class="st22" cx="184.4" cy="143.7" r="1.5"/>
			<circle class="st22" cx="181" cy="132.9" r="1.5"/>
			<circle class="st22" cx="182.9" cy="116.9" r="1.5"/>
			<circle class="st22" cx="192.4" cy="127.1" r="1.5"/>
			<circle class="st22" cx="187.4" cy="133.1" r="1.5"/>
			<circle class="st22" cx="201.2" cy="120.3" r="1.5"/>
			<circle class="st22" cx="201" cy="106.7" r="1.5"/>
			<circle class="st22" cx="268" cy="135.2" r="1.5"/>
			<circle class="st22" cx="198.8" cy="117.6" r="1.5"/>
			<circle class="st22" cx="168.8" cy="172.5" r="1.5"/>
			<circle class="st22" cx="171.4" cy="182" r="1.5"/>
			<circle class="st22" cx="185.3" cy="183.1" r="1.5"/>
			<circle class="st22" cx="159.5" cy="191.6" r="1.5"/>
			<circle class="st22" cx="186.4" cy="193.1" r="1.5"/>
			<circle class="st22" cx="170.4" cy="203.2" r="1.5"/>
			<circle class="st22" cx="192" cy="206.8" r="1.5"/>
			<circle class="st22" cx="207.6" cy="212" r="1.5"/>
			<circle class="st22" cx="200.2" cy="222.8" r="1.5"/>
			<circle class="st22" cx="209.6" cy="227.9" r="1.5"/>
			<circle class="st22" cx="224.1" cy="227.4" r="1.5"/>
			<circle class="st22" cx="251" cy="226.4" r="1.5"/>
			<circle class="st22" cx="280.2" cy="224.8" r="1.5"/>
			<circle class="st22" cx="276.3" cy="213.1" r="1.5"/>
			<circle class="st22" cx="287.2" cy="218.9" r="1.5"/>
			<circle class="st22" cx="292.6" cy="210.1" r="1.5"/>
			<circle class="st22" cx="283.4" cy="205.8" r="1.5"/>
			<circle class="st21" cx="232.2" cy="126.8" r="1.5"/>
			<circle class="st21" cx="234.4" cy="134.6" r="1.5"/>
			<circle class="st21" cx="242" cy="164.1" r="1.5"/>
			<circle class="st21" cx="205" cy="156.9" r="1.5"/>
			<circle class="st21" cx="201" cy="134" r="1.5"/>
			<circle class="st21" cx="224.3" cy="114.6" r="1.5"/>
			<circle class="st21" cx="242.5" cy="122" r="1.5"/>
			<circle class="st21" cx="242.7" cy="151.6" r="1.5"/>
			<circle class="st21" cx="288.5" cy="114.1" r="1.5"/>
			<circle class="st21" cx="278.2" cy="124.9" r="1.5"/>
			<circle class="st21" cx="259.1" cy="145.1" r="1.5"/>
			<circle class="st21" cx="214.5" cy="162.8" r="1.5"/>
			<circle class="st21" cx="231.6" cy="113" r="1.5"/>
			<circle class="st21" cx="238.5" cy="112.7" r="1.5"/>
			<circle class="st21" cx="252.4" cy="115.6" r="1.5"/>
			<circle class="st21" cx="262.9" cy="115.8" r="1.5"/>
			<circle class="st21" cx="288.5" cy="140" r="1.5"/>
			<circle class="st21" cx="247.8" cy="110.1" r="1.5"/>
			<circle class="st21" cx="294.8" cy="154.6" r="1.5"/>
			<circle class="st21" cx="267.3" cy="123.8" r="1.5"/>
			<circle class="st21" cx="297.7" cy="132.3" r="1.5"/>
			<circle class="st21" cx="304.8" cy="148.2" r="1.5"/>
			<circle class="st21" cx="307.9" cy="161.9" r="1.5"/>
			<circle class="st21" cx="313.5" cy="173.3" r="1.5"/>
			<circle class="st21" cx="301.4" cy="170.8" r="1.5"/>
			<circle class="st21" cx="293.3" cy="195.4" r="1.5"/>
			<circle class="st21" cx="267.4" cy="213.3" r="1.5"/>
			<circle class="st21" cx="268.3" cy="197.7" r="1.5"/>
			<circle class="st21" cx="238.8" cy="217.9" r="1.5"/>
			<circle class="st21" cx="279.2" cy="171.3" r="1.5"/>
			<circle class="st21" cx="271.4" cy="169.5" r="1.5"/>
			<circle class="st21" cx="250.7" cy="200.1" r="1.5"/>
			<circle class="st21" cx="273.7" cy="202.8" r="1.5"/>
			<circle class="st21" cx="291.8" cy="178.5" r="1.5"/>
			<circle class="st21" cx="283.5" cy="160.8" r="1.5"/>
			<circle class="st21" cx="253.6" cy="162.1" r="1.5"/>
			<circle class="st21" cx="244.3" cy="191" r="1.5"/>
			<circle class="st21" cx="293" cy="171.1" r="1.5"/>
			<circle class="st21" cx="292.9" cy="164.2" r="1.5"/>
			<circle class="st21" cx="289.3" cy="150.5" r="1.5"/>
			<circle class="st21" cx="280.2" cy="136" r="1.5"/>
			<circle class="st21" cx="234.3" cy="108.2" r="1.5"/>
			<circle class="st21" cx="297.7" cy="168.2" r="1.5"/>
		</g>
	</g>
	<g>
		<path d="M40.6,219.1v-56.9h7.2v23.4h29.1v-23.4h7.2v56.9h-7.2v-26.5h-29v26.5L40.6,219.1L40.6,219.1z"/>
		<path d="M110.7,220.3c-5.4,0-8.8-1.4-11-4c-2.3-2.6-3-6.8-3-12.9v-24.2h7.1v24.1c0,3.3,0.1,6.5,1.4,8.2c1.2,1.6,3,2.1,6.1,2.1
			c4.5,0,8.2-0.9,10.9-1.7v-32.8h7.1v38C123.8,218.7,117.8,220.3,110.7,220.3z"/>
		<path d="M140.7,162.1h7.1v20.4c0.8-0.5,3.5-1.8,5.2-2.6c2.3-1.1,5.1-2,8.3-2c5.4,0,8.8,2.1,11.1,6c2.1,3.5,3.2,8.6,3.2,14.9
			c0,6.3-1.1,11.2-3.5,14.9c-2.8,4.3-6.5,6.6-13.9,6.6c-3.1,0-5.7-0.3-8.7-0.9c-3.7-0.7-6.8-1.4-8.8-2L140.7,162.1L140.7,162.1z
			 M152,213c1.7,0.3,3.7,0.6,6,0.6c3.9,0,6.6-1.3,8.2-4c1.7-2.8,2.3-6,2.3-10.6c0-4.5-0.5-8-1.8-10.7c-1.4-2.8-3.7-3.7-6.4-3.7
			c-2.3,0-4.4,0.8-6.6,1.8c-2.2,1-4.2,2-5.8,2.9V212C149,212.4,150.2,212.7,152,213z"/>
	</g>
</g>
</svg>
